<svg width="65" height="64" viewBox="0 0 65 64" fill="none" xmlns="http://www.w3.org/2000/svg">
<circle cx="32.5" cy="32" r="32" fill="#F7F3E8"/>
<path d="M52.8125 43.1125C52.0438 44.3687 51.2 45.5687 50.2625 46.6937C46.175 51.5875 40.5125 55 32.6562 55C24.8 55 19.1375 51.5875 15.05 46.6937C14.1125 45.5687 13.2688 44.3686 12.5 43.1125C16.1938 35.7062 23.8438 30.625 32.6562 30.625C41.4688 30.625 49.1188 35.7062 52.8125 43.1125Z" fill="#386E93"/>
<path d="M32.6562 28.75C37.8339 28.75 42.0312 24.5527 42.0312 19.375C42.0312 14.1973 37.8339 10 32.6562 10C27.4786 10 23.2812 14.1973 23.2812 19.375C23.2812 24.5527 27.4786 28.75 32.6562 28.75Z" fill="#FFC10A"/>
</svg>
