<svg width="64" height="64" viewBox="0 0 64 64" fill="none" xmlns="http://www.w3.org/2000/svg">
<rect width="64" height="64" rx="32" fill="#F7F3E8"/>
<path d="M15.375 44.25V23.25H48.625V44.25C48.625 46.175 47.05 47.75 45.125 47.75H18.875C16.95 47.75 15.375 46.175 15.375 44.25Z" fill="#CFD8DC"/>
<path d="M48.625 19.75V25H15.375V19.75C15.375 17.825 16.95 16.25 18.875 16.25H45.125C47.05 16.25 48.625 17.825 48.625 19.75Z" fill="#F44336"/>
<path d="M37.25 19.75C37.25 20.4462 37.5266 21.1139 38.0188 21.6062C38.5111 22.0984 39.1788 22.375 39.875 22.375C40.5712 22.375 41.2389 22.0984 41.7312 21.6062C42.2234 21.1139 42.5 20.4462 42.5 19.75C42.5 19.0538 42.2234 18.3861 41.7312 17.8938C41.2389 17.4016 40.5712 17.125 39.875 17.125C39.1788 17.125 38.5111 17.4016 38.0188 17.8938C37.5266 18.3861 37.25 19.0538 37.25 19.75Z" fill="#B71C1C"/>
<path d="M21.5 19.75C21.5 20.4462 21.7766 21.1139 22.2688 21.6062C22.7611 22.0984 23.4288 22.375 24.125 22.375C24.8212 22.375 25.4889 22.0984 25.9812 21.6062C26.4734 21.1139 26.75 20.4462 26.75 19.75C26.75 19.0538 26.4734 18.3861 25.9812 17.8938C25.4889 17.4016 24.8212 17.125 24.125 17.125C23.4288 17.125 22.7611 17.4016 22.2688 17.8938C21.7766 18.3861 21.5 19.0538 21.5 19.75Z" fill="#B71C1C"/>
<path d="M39.875 13.625C38.9125 13.625 38.125 14.4125 38.125 15.375V19.75C38.125 20.7125 38.9125 21.5 39.875 21.5C40.8375 21.5 41.625 20.7125 41.625 19.75V15.375C41.625 14.4125 40.8375 13.625 39.875 13.625ZM24.125 13.625C23.1625 13.625 22.375 14.4125 22.375 15.375V19.75C22.375 20.7125 23.1625 21.5 24.125 21.5C25.0875 21.5 25.875 20.7125 25.875 19.75V15.375C25.875 14.4125 25.0875 13.625 24.125 13.625Z" fill="#B0BEC5"/>
<path d="M22.375 28.5H25.875V32H22.375V28.5ZM27.625 28.5H31.125V32H27.625V28.5ZM32.875 28.5H36.375V32H32.875V28.5ZM38.125 28.5H41.625V32H38.125V28.5ZM22.375 33.75H25.875V37.25H22.375V33.75ZM27.625 33.75H31.125V37.25H27.625V33.75ZM32.875 33.75H36.375V37.25H32.875V33.75ZM38.125 33.75H41.625V37.25H38.125V33.75ZM22.375 39H25.875V42.5H22.375V39ZM27.625 39H31.125V42.5H27.625V39ZM32.875 39H36.375V42.5H32.875V39ZM38.125 39H41.625V42.5H38.125V39Z" fill="#90A4AE"/>
</svg>
