<svg width="64" height="64" viewBox="0 0 64 64" fill="none" xmlns="http://www.w3.org/2000/svg">
<circle cx="32" cy="32" r="32" fill="#F7F3E8"/>
<g clip-path="url(#clip0_239_17706)">
<path d="M15.6207 52.9999C17.62 52.9999 19.2414 51.3786 19.2414 49.3792V34.1724H12V49.3792C12 51.3786 13.6213 52.9999 15.6207 52.9999Z" fill="#CDCFCF"/>
<path d="M19.2414 49.3793V45.7586V28.3793V12.4483C19.2414 11.6481 19.8895 11 20.6896 11H52.5517C53.3519 11 54 11.6481 54 12.4483V49.3793C54 51.3787 52.3786 53 50.3793 53H15.6207C17.62 53 19.2414 51.3787 19.2414 49.3793Z" fill="#ECF1F1"/>
<path d="M22.8621 27.655H35.8965V14.6206H22.8621V27.655Z" fill="#F38774"/>
<path d="M40.2414 49.3792H50.3793V14.6206H40.2414V49.3792Z" fill="#F0C419"/>
<path d="M36.6207 32.0001H22.8621C22.4624 32.0001 22.1379 31.6757 22.1379 31.2759C22.1379 30.8762 22.4624 30.5518 22.8621 30.5518H36.6207C37.0205 30.5518 37.3449 30.8762 37.3449 31.2759C37.3449 31.6757 37.0205 32.0001 36.6207 32.0001Z" fill="#CDCFCF"/>
<path d="M36.6207 35.6207H22.8621C22.4624 35.6207 22.1379 35.2963 22.1379 34.8965C22.1379 34.4968 22.4624 34.1724 22.8621 34.1724H36.6207C37.0205 34.1724 37.3449 34.4968 37.3449 34.8965C37.3449 35.2963 37.0205 35.6207 36.6207 35.6207Z" fill="#CDCFCF"/>
<path d="M36.6207 39.2416H22.8621C22.4624 39.2416 22.1379 38.9171 22.1379 38.5174C22.1379 38.1176 22.4624 37.7932 22.8621 37.7932H36.6207C37.0205 37.7932 37.3449 38.1176 37.3449 38.5174C37.3449 38.9171 37.0205 39.2416 36.6207 39.2416Z" fill="#CDCFCF"/>
<path d="M36.6207 42.8622H22.8621C22.4624 42.8622 22.1379 42.5377 22.1379 42.138C22.1379 41.7383 22.4624 41.4138 22.8621 41.4138H36.6207C37.0205 41.4138 37.3449 41.7383 37.3449 42.138C37.3449 42.5377 37.0205 42.8622 36.6207 42.8622Z" fill="#CDCFCF"/>
<path d="M36.6207 46.4828H22.8621C22.4624 46.4828 22.1379 46.1583 22.1379 45.7586C22.1379 45.3589 22.4624 45.0344 22.8621 45.0344H36.6207C37.0205 45.0344 37.3449 45.3589 37.3449 45.7586C37.3449 46.1583 37.0205 46.4828 36.6207 46.4828Z" fill="#CDCFCF"/>
<path d="M36.6207 50.1036H22.8621C22.4624 50.1036 22.1379 49.7792 22.1379 49.3794C22.1379 48.9797 22.4624 48.6553 22.8621 48.6553H36.6207C37.0205 48.6553 37.3449 48.9797 37.3449 49.3794C37.3449 49.7792 37.0205 50.1036 36.6207 50.1036Z" fill="#CDCFCF"/>
<path d="M46.7586 19.6896H43.8621C43.4624 19.6896 43.1379 19.3651 43.1379 18.9654C43.1379 18.5656 43.4624 18.2412 43.8621 18.2412H46.7586C47.1584 18.2412 47.4828 18.5656 47.4828 18.9654C47.4828 19.3651 47.1584 19.6896 46.7586 19.6896Z" fill="#C59D1D"/>
<path d="M46.7586 23.3102H43.8621C43.4624 23.3102 43.1379 22.9857 43.1379 22.586C43.1379 22.1863 43.4624 21.8618 43.8621 21.8618H46.7586C47.1584 21.8618 47.4828 22.1863 47.4828 22.586C47.4828 22.9857 47.1584 23.3102 46.7586 23.3102Z" fill="#C59D1D"/>
<path d="M46.7586 26.931H43.8621C43.4624 26.931 43.1379 26.6066 43.1379 26.2068C43.1379 25.8071 43.4624 25.4827 43.8621 25.4827H46.7586C47.1584 25.4827 47.4828 25.8071 47.4828 26.2068C47.4828 26.6066 47.1584 26.931 46.7586 26.931Z" fill="#C59D1D"/>
<path d="M46.7586 30.5516H43.8621C43.4624 30.5516 43.1379 30.2272 43.1379 29.8274C43.1379 29.4277 43.4624 29.1033 43.8621 29.1033H46.7586C47.1584 29.1033 47.4828 29.4277 47.4828 29.8274C47.4828 30.2272 47.1584 30.5516 46.7586 30.5516Z" fill="#C59D1D"/>
<path d="M46.7586 34.1725H43.8621C43.4624 34.1725 43.1379 33.848 43.1379 33.4483C43.1379 33.0486 43.4624 32.7241 43.8621 32.7241H46.7586C47.1584 32.7241 47.4828 33.0486 47.4828 33.4483C47.4828 33.848 47.1584 34.1725 46.7586 34.1725Z" fill="#C59D1D"/>
<path d="M46.7586 37.7931H43.8621C43.4624 37.7931 43.1379 37.4686 43.1379 37.0689C43.1379 36.6692 43.4624 36.3447 43.8621 36.3447H46.7586C47.1584 36.3447 47.4828 36.6692 47.4828 37.0689C47.4828 37.4686 47.1584 37.7931 46.7586 37.7931Z" fill="#C59D1D"/>
<path d="M46.7586 41.4137H43.8621C43.4624 41.4137 43.1379 41.0892 43.1379 40.6895C43.1379 40.2898 43.4624 39.9653 43.8621 39.9653H46.7586C47.1584 39.9653 47.4828 40.2898 47.4828 40.6895C47.4828 41.0892 47.1584 41.4137 46.7586 41.4137Z" fill="#C59D1D"/>
<path d="M46.7586 45.0345H43.8621C43.4624 45.0345 43.1379 44.7101 43.1379 44.3104C43.1379 43.9106 43.4624 43.5862 43.8621 43.5862H46.7586C47.1584 43.5862 47.4828 43.9106 47.4828 44.3104C47.4828 44.7101 47.1584 45.0345 46.7586 45.0345Z" fill="#C59D1D"/>
</g>
<defs>
<clipPath id="clip0_239_17706">
<rect width="42" height="42" fill="white" transform="translate(12 11)"/>
</clipPath>
</defs>
</svg>
