<svg width="65" height="64" viewBox="0 0 65 64" fill="none" xmlns="http://www.w3.org/2000/svg">
<rect x="0.5" width="64" height="64" rx="32" fill="#F7F3E8"/>
<path d="M46.5 19.3999H18.5C16.96 19.3999 15.7 20.6599 15.7 22.1999V41.7999C15.7 43.3399 16.96 44.5999 18.5 44.5999H46.5C48.04 44.5999 49.3 43.3399 49.3 41.7999V22.1999C49.3 20.6599 48.04 19.3999 46.5 19.3999ZM44.82 24.9999L33.48 33.9599C32.92 34.3799 32.08 34.3799 31.38 33.9599L20.18 25.1399C19.76 24.8599 19.62 24.1599 20.04 23.5999C20.46 23.1799 21.02 23.0399 21.58 23.3199L32.5 30.5999L43.56 23.3199C44.12 23.0399 44.82 23.1799 45.1 23.5999C45.38 24.0199 45.24 24.7199 44.82 24.9999Z" fill="url(#paint0_linear_239_18041)"/>
<defs>
<linearGradient id="paint0_linear_239_18041" x1="32.5" y1="19.3999" x2="32.5" y2="44.5999" gradientUnits="userSpaceOnUse">
<stop stop-color="#FFDF1D"/>
<stop offset="1" stop-color="#998611"/>
</linearGradient>
</defs>
</svg>
