<svg width="88" height="78" viewBox="0 0 88 78" fill="none" xmlns="http://www.w3.org/2000/svg">
<path d="M49.375 69.9443H0V70.3688H49.375V69.9443Z" fill="#AF8B18"/>
<path d="M87.6202 69.9443H53.3242V70.3688H87.6202V69.9443Z" fill="#AF8B18"/>
<path d="M2.84498 66.1449V64.3393L2.76759 63.683C2.55219 63.6226 2.36234 63.5861 2.19842 63.5861C1.77529 63.5861 1.44781 63.751 1.23241 64.0801C1.04293 64.3649 0.946912 64.7539 0.946912 65.2289C0.946912 66.086 1.29265 66.671 1.85342 66.671C2.23274 66.6714 2.56095 66.4995 2.84498 66.1449ZM3.44956 63.4409L3.36267 64.2874V65.6695C3.33712 65.7478 3.26008 65.9299 3.12062 66.1968C2.75079 66.8103 2.28494 67.1131 1.73221 67.1131C1.34376 67.1131 1.03344 66.9665 0.782989 66.6637C0.515748 66.3262 0.385778 65.9035 0.404032 65.3843C0.446382 64.0706 1.18823 63.2764 2.38717 63.2764C2.77671 63.2771 3.13084 63.3283 3.44956 63.4409Z" fill="black"/>
<path d="M6.69737 66.6379V63.6645H6.07637C5.27355 63.6645 4.82486 64.2956 4.82486 65.2978C4.82486 66.1885 5.15307 66.6379 5.79963 66.6379H6.69737ZM8.9828 67.0526H7.23186C7.13621 68.0636 6.60172 68.7016 5.61052 68.97L5.47179 68.7459C5.90332 68.5817 6.22167 68.3137 6.43817 67.9426C6.60172 67.665 6.68861 67.3718 6.69701 67.0526H5.66966C5.26406 67.0526 4.92818 66.9224 4.67846 66.6639C4.41013 66.3695 4.28125 65.9717 4.28125 65.4708C4.28125 64.84 4.45393 64.3391 4.79091 63.9585C5.13555 63.5789 5.58423 63.3877 6.13624 63.3877H7.23186V66.6379H8.9828V67.0526Z" fill="black"/>
<path d="M14.0471 67.0528H8.75781V66.6381H13.5295V65.0037C13.5295 64.2691 12.8909 63.8201 11.8986 63.8201H9.25031C10.1221 62.9308 10.8114 62.1531 11.3375 61.4697H12.0282L11.1655 62.2657L10.1648 63.3879H12.0888C12.6671 63.3879 13.133 63.5269 13.4951 63.7941C13.8661 64.0622 14.0475 64.4165 14.0475 64.8483V67.0528H14.0471Z" fill="black"/>
<path d="M15.928 66.7236C15.928 67.9072 15.3833 68.6498 14.306 68.9533L14.168 68.7197C14.6079 68.5551 14.9357 68.2867 15.1603 67.9171C15.3246 67.6308 15.4016 67.3375 15.4016 67.0172V64.6405L15.2636 63.5527L15.9284 63.3867L15.928 66.7236Z" fill="black"/>
<path d="M18.867 67.0527H18.1245C17.3917 67.0527 17.0205 66.6549 17.0205 65.8599V62.6627L16.8828 61.6342L17.5381 61.4795V65.7034C17.5381 66.3265 17.8054 66.6384 18.3318 66.6384H18.867V67.0527Z" fill="black"/>
<path d="M19.814 66.6289H18.6406V67.0531H19.814V66.6289Z" fill="black"/>
<path d="M20.7091 66.6287H19.535V67.0528H20.7091V66.6287Z" fill="black"/>
<path d="M21.6073 66.6289H20.4336V67.0531H21.6073V66.6289Z" fill="black"/>
<path d="M22.5015 66.6289H21.3281V67.0531H22.5015V66.6289Z" fill="black"/>
<path d="M23.4003 66.6287H22.2265V67.0528H23.4003V66.6287Z" fill="black"/>
<path d="M24.2984 66.6289H23.125V67.0531H24.2984V66.6289Z" fill="black"/>
<path d="M25.1972 66.6289H24.0234V67.0531H25.1972V66.6289Z" fill="black"/>
<path d="M26.0921 66.6289H24.918V67.0531H26.0921V66.6289Z" fill="black"/>
<path d="M26.9887 66.6289H25.8164V67.0531H26.9887V66.6289Z" fill="black"/>
<path d="M27.8886 66.6289H26.7148V67.0531H27.8886V66.6289Z" fill="black"/>
<path d="M28.7828 66.6289H27.6094V67.0531H28.7828V66.6289Z" fill="black"/>
<path d="M29.6813 66.6287H28.5076V67.0528H29.6813V66.6287Z" fill="black"/>
<path d="M30.5796 66.6289H29.4062V67.0531H30.5796V66.6289Z" fill="black"/>
<path d="M31.4777 66.6289H30.3047V67.0531H31.4777V66.6289Z" fill="black"/>
<path d="M36.1425 61.8585C36.1425 62.101 36.0132 62.2227 35.7628 62.2227C35.513 62.2227 35.3922 62.101 35.3922 61.8501C35.3922 61.5993 35.513 61.4698 35.7628 61.4698C35.9701 61.4698 36.1425 61.6424 36.1425 61.8585ZM35.5737 60.8311C35.5737 61.0819 35.4521 61.211 35.2024 61.211C34.9516 61.211 34.823 61.0815 34.823 60.8311C34.823 60.5707 34.9519 60.4424 35.2024 60.4424C35.401 60.4424 35.5737 60.6234 35.5737 60.8311ZM35.0129 61.8585C35.0129 62.101 34.8829 62.2227 34.6325 62.2227C34.3827 62.2227 34.2531 62.101 34.2531 61.8501C34.2531 61.5993 34.3824 61.4698 34.6325 61.4698C34.8398 61.4698 35.0129 61.6424 35.0129 61.8585ZM38.8174 67.0529H38.2826C37.9029 67.0529 37.6189 66.9311 37.4199 66.6887C37.2216 66.9311 36.9453 67.0529 36.5919 67.0529C36.0994 67.0529 35.7022 66.8185 35.4013 66.3435C35.237 66.8189 34.892 67.0529 34.3831 67.0529C33.9344 67.0529 33.5463 66.8361 33.2273 66.405C33.1754 66.5344 33.1057 66.6459 33.0111 66.7417C32.8129 66.9491 32.5453 67.0533 32.209 67.0533H31.1992V66.6386H31.9929C32.5281 66.6386 32.795 66.3267 32.795 65.7037L32.8041 63.8897L33.3131 63.7603V65.93C33.3131 66.0068 33.3043 66.0759 33.2963 66.145C33.5975 66.4565 33.891 66.6119 34.1586 66.6119C34.6839 66.6119 34.9516 66.3092 34.9516 65.6956V63.8897L35.4605 63.7603V66.0931C35.7628 66.4393 36.0738 66.6119 36.3845 66.6119C36.9018 66.6119 37.161 66.3092 37.161 65.6956V64.6407L37.0146 63.5529L37.6787 63.388V65.7296C37.6787 66.3337 37.9456 66.6379 38.4812 66.6379H38.8174V67.0529Z" fill="black"/>
<path d="M42.0292 64.2875L41.9426 63.6305C41.7272 63.5705 41.5374 63.5358 41.3735 63.5358C40.9503 63.5358 40.6225 63.6999 40.4074 64.0286C40.2172 64.3139 40.1223 64.693 40.1223 65.1859C40.1223 66.0408 40.4673 66.6386 41.0193 66.6386C41.7437 66.6386 42.1069 66.1626 42.1069 65.2203C42.1065 64.9877 42.0799 64.6766 42.0292 64.2875ZM42.6242 63.3873L42.5552 64.2356V65.5669C42.5552 66.5597 41.9773 67.0529 40.8211 67.0529H38.6211V66.6383H39.9588C39.7079 66.3172 39.5787 65.8938 39.5787 65.3581C39.5787 64.7106 39.7605 64.1925 40.1139 63.8041C40.4761 63.4147 40.9595 63.2158 41.564 63.2158C41.9507 63.2162 42.3044 63.2772 42.6242 63.3873Z" fill="black"/>
<path d="M45.8689 66.5344V63.6652H45.2486C44.4462 63.6652 43.9971 64.2963 43.9971 65.2986C43.9971 66.2324 44.3249 66.6986 44.9719 66.6986C45.2391 66.6986 45.5418 66.646 45.8689 66.5344ZM46.4041 66.7242C46.4041 67.9078 45.8601 68.6504 44.7828 68.9539L44.6437 68.7203C45.4636 68.4179 45.8685 67.8394 45.8685 66.9666C45.4374 67.0778 45.0664 67.1396 44.7645 67.1396C43.9708 67.1396 43.4531 66.5078 43.4531 65.4715C43.4531 64.8408 43.6258 64.3398 43.9621 63.9592C44.3078 63.5797 44.7568 63.3877 45.3085 63.3877H46.4041V66.7242Z" fill="black"/>
<path d="M52.2874 70.162C52.2874 70.4048 52.1571 70.5251 51.907 70.5251C51.6478 70.5251 51.5193 70.4048 51.5193 70.1536C51.5193 69.9024 51.6478 69.773 51.907 69.773C52.114 69.773 52.2874 69.947 52.2874 70.162ZM51.1568 70.162C51.1568 70.4048 51.0275 70.5251 50.7687 70.5251C50.5186 70.5251 50.389 70.4048 50.389 70.1536C50.389 69.9024 50.5186 69.773 50.7687 69.773C50.9665 69.773 51.1568 69.947 51.1568 70.162ZM53.8492 66.6379L53.8314 67.0606C53.7364 68.0632 53.2012 68.7024 52.2177 68.9781L50.9063 69.0139C49.3879 69.0139 48.6289 68.1071 48.6289 66.2913V64.798H49.1378V66.2569C49.1378 67.0178 49.301 67.6223 49.6212 68.0811C49.9403 68.5375 50.4149 68.7718 51.0279 68.7718L52.08 68.7459C52.5108 68.5817 52.831 68.3228 53.0453 67.951C53.21 67.665 53.2972 67.3718 53.3053 67.0515L52.2783 67.0606C51.8734 67.0606 51.5467 66.9308 51.2955 66.6635C51.0198 66.3776 50.8811 65.9798 50.8811 65.4704C50.8811 64.8397 51.0531 64.3388 51.3904 63.9665C51.7354 63.587 52.1929 63.3965 52.7533 63.3965H53.3662L53.3056 63.6641H52.6755C51.8825 63.6641 51.4419 64.3033 51.4419 65.315C51.4419 66.1962 51.7613 66.6376 52.409 66.6376L53.8492 66.6379Z" fill="black"/>
<path d="M55.7292 66.7236C55.7292 67.9072 55.1856 68.6498 54.1079 68.9533L53.9688 68.7197C54.4098 68.5551 54.7369 68.2867 54.9621 67.9171C55.1257 67.6308 55.2042 67.3375 55.2042 67.0172V64.6405L55.0651 63.5527L55.7292 63.3867V66.7236Z" fill="black"/>
<path d="M58.6717 67.0527H57.9295C57.1972 67.0527 56.8255 66.6549 56.8255 65.8599V62.6627L56.6875 61.6342L57.3439 61.4795V65.7034C57.3439 66.3265 57.6112 66.6384 58.1376 66.6384H58.6721L58.6717 67.0527Z" fill="black"/>
<path d="M59.6143 66.6287H58.4413V67.0528H59.6143V66.6287Z" fill="black"/>
<path d="M60.5093 66.6289H59.3359V67.0531H60.5093V66.6289Z" fill="black"/>
<path d="M61.4078 66.6289H60.2344V67.0531H61.4078V66.6289Z" fill="black"/>
<path d="M62.3062 66.6289H61.1328V67.0531H62.3062V66.6289Z" fill="black"/>
<path d="M63.2043 66.6289H62.0312V67.0531H63.2043V66.6289Z" fill="black"/>
<path d="M64.1027 66.6289H62.9297V67.0531H64.1027V66.6289Z" fill="black"/>
<path d="M65.0011 66.6289H63.8281V67.0531H65.0011V66.6289Z" fill="black"/>
<path d="M65.8962 66.6287H64.7228V67.0528H65.8962V66.6287Z" fill="black"/>
<path d="M66.7945 66.6289H65.6211V67.0531H66.7945V66.6289Z" fill="black"/>
<path d="M67.6886 66.6289H66.5156V67.0531H67.6886V66.6289Z" fill="black"/>
<path d="M68.5871 66.6289H67.4141V67.0531H68.5871V66.6289Z" fill="black"/>
<path d="M69.4857 66.6287H68.3127V67.0528H69.4857V66.6287Z" fill="black"/>
<path d="M70.3804 66.6289H69.207V67.0531H70.3804V66.6289Z" fill="black"/>
<path d="M71.2828 66.6289H70.1094V67.0531H71.2828V66.6289Z" fill="black"/>
<path d="M77.4752 66.6384V65.0906C77.4752 64.3396 76.8534 63.9078 75.8604 63.9078C74.8517 63.9078 73.9375 64.8149 73.1263 66.6388H77.4752V66.6384ZM79.1998 67.0531H72.6787V66.7587C72.445 66.9573 72.2209 67.0531 72.0135 67.0531H71.0037V66.6384H71.7981C72.3333 66.6384 72.6006 66.3265 72.6006 65.7035L72.609 63.8895L73.1183 63.76V65.7477C73.8513 64.2273 74.8342 63.4668 76.0517 63.4668C76.6289 63.4668 77.1042 63.6054 77.4668 63.8822C77.8282 64.1491 78.0089 64.5034 78.0089 64.9352V66.63H79.1998V67.0531Z" fill="black"/>
<path d="M80.7557 61.8587C80.7557 62.1011 80.6265 62.2228 80.376 62.2228C80.1263 62.2228 79.9963 62.1011 79.9963 61.8502C79.9963 61.5994 80.1263 61.47 80.376 61.47C80.5837 61.47 80.7557 61.6437 80.7557 61.8587ZM81.2646 65.8603C81.2646 66.6121 80.8331 67.053 80.1511 67.053H78.996V66.6384H79.9357C80.4793 66.6384 80.7469 66.3265 80.7469 65.7034V64.6244L80.6093 63.5531L81.2646 63.3871V65.8603Z" fill="black"/>
<path d="M85.553 65.8602C85.553 66.5436 85.1481 67.0519 84.4665 67.0519H82.2924L82.4911 66.6383H84.2343C84.3282 66.6383 84.4143 66.6204 84.5008 66.5941L82.7145 63.387L82.0935 62.5848H82.7922L84.8455 66.352C84.9747 66.197 85.0357 65.9801 85.0357 65.7045V62.723L84.8897 61.6341L85.5526 61.4699L85.553 65.8602ZM83.3709 62.0407H81.8007V61.8162H82.0938V61.6692C82.0938 61.1942 82.284 60.9521 82.6718 60.9521C82.8528 60.9521 83.0171 61.0213 83.1639 61.1682L83.0686 61.3057C82.9741 61.2289 82.8707 61.1858 82.7755 61.1858C82.4991 61.1858 82.3611 61.3587 82.3611 61.7123V61.8162H82.8452L83.0682 61.7803L83.3709 62.0407Z" fill="black"/>
<path d="M87.2085 61.4697L87.1307 62.4994V67.0528H86.613V62.4994L86.4922 61.5312L87.2085 61.4697Z" fill="black"/>
<path d="M1.79405 75.2826C1.93899 75.2826 2.09014 75.2859 2.24566 75.2921C2.40192 75.2968 2.55233 75.2997 2.69764 75.2997C2.85389 75.2997 3.01015 75.2986 3.1664 75.2946C3.32302 75.2928 3.47892 75.2884 3.63517 75.2826L2.7064 73.1534L1.79405 75.2826ZM5.50148 77.8907C5.42372 77.8794 5.34997 77.8739 5.28024 77.8739H5.05863H4.8363C4.76693 77.8739 4.69209 77.8794 4.61506 77.8907C4.57636 77.762 4.52306 77.607 4.45624 77.4253C4.38907 77.2443 4.31459 77.0538 4.23391 76.8548C4.15286 76.6567 4.07108 76.4556 3.98675 76.2519C3.90314 76.0482 3.82502 75.8537 3.75236 75.6683C3.57347 75.6628 3.39276 75.6592 3.20839 75.657C3.02402 75.6533 2.84002 75.6515 2.65602 75.6515C2.48297 75.6515 2.31284 75.6533 2.1449 75.657C1.97806 75.6592 1.80793 75.6632 1.63488 75.6683C1.45562 76.1049 1.29462 76.5199 1.14932 76.9137C1.00401 77.3075 0.894852 77.6337 0.822931 77.8907C0.727644 77.8794 0.625055 77.8739 0.513339 77.8739C0.401259 77.8739 0.298305 77.8794 0.203018 77.8907C0.655357 76.9126 1.09601 75.94 1.52608 74.9725C1.95542 74.0068 2.38804 73.0225 2.82395 72.0225H2.98204C3.11675 72.3457 3.26169 72.6974 3.41758 73.0733C3.57384 73.451 3.73338 73.8331 3.89475 74.2185C4.05684 74.6039 4.21821 74.9879 4.38031 75.3674C4.5424 75.7466 4.69428 76.1016 4.8363 76.4278C4.97868 76.7543 5.10719 77.0464 5.22146 77.3035C5.3361 77.5613 5.42956 77.7569 5.50148 77.8907Z" fill="black"/>
<path d="M6.82878 73.3637C6.8255 73.1403 6.82185 72.9183 6.81601 72.7011C6.81053 72.4821 6.80396 72.2748 6.79483 72.0755C6.78643 71.877 6.77731 71.7084 6.76562 71.5684C6.92115 71.5965 7.04747 71.6104 7.14203 71.6104C7.23695 71.6104 7.36217 71.5965 7.51879 71.5684C7.50784 71.7084 7.49762 71.877 7.48995 72.0755C7.48119 72.2748 7.47425 72.4821 7.46878 72.7011C7.46294 72.9183 7.45928 73.1399 7.456 73.3637C7.45308 73.5867 7.45125 73.7944 7.45125 73.9846V75.5005C7.45125 75.691 7.45271 75.8976 7.456 76.1218C7.45928 76.3437 7.4633 76.5656 7.46878 76.7828C7.47425 77.0019 7.48082 77.2081 7.48995 77.4041C7.49762 77.5997 7.50784 77.762 7.51879 77.8904C7.38992 77.879 7.26542 77.8725 7.14203 77.8725C7.01972 77.8725 6.89377 77.879 6.76562 77.8904C6.77731 77.7617 6.78643 77.5997 6.79483 77.4041C6.80359 77.2081 6.81053 77.0015 6.81601 76.7828C6.82185 76.5656 6.8255 76.3441 6.82878 76.1218C6.83134 75.8976 6.83317 75.691 6.83317 75.5005V73.9846C6.83317 73.7944 6.83171 73.5871 6.82878 73.3637Z" fill="black"/>
<path d="M11.0761 75.6768H8.99219V76.1971H11.0761V75.6768Z" fill="black"/>
<path d="M13.4976 75.2826C13.6425 75.2826 13.7933 75.2859 13.9499 75.2921C14.1055 75.2968 14.2562 75.2997 14.4019 75.2997C14.5574 75.2997 14.714 75.2986 14.8703 75.2946C15.0262 75.2928 15.1828 75.2884 15.3391 75.2826L14.4099 73.1534L13.4976 75.2826ZM17.2065 77.8907C17.1283 77.8794 17.0539 77.8739 16.9841 77.8739H16.7618H16.5406C16.4701 77.8739 16.3964 77.8794 16.3186 77.8907C16.2795 77.762 16.2262 77.607 16.1587 77.4253C16.0926 77.2443 16.0178 77.0538 15.9378 76.8548C15.8564 76.6567 15.7743 76.4556 15.6906 76.2519C15.6063 76.0482 15.5286 75.8537 15.4563 75.6683C15.2777 75.6628 15.0956 75.6592 14.9116 75.657C14.7283 75.6533 14.5436 75.6515 14.3592 75.6515C14.1861 75.6515 14.016 75.6533 13.8488 75.657C13.6812 75.6592 13.5107 75.6632 13.338 75.6683C13.1592 76.1049 12.9978 76.5199 12.8532 76.9137C12.7072 77.3075 12.5991 77.6337 12.5261 77.8907C12.4304 77.8794 12.3275 77.8739 12.2154 77.8739C12.1041 77.8739 12.0015 77.8794 11.9062 77.8907C12.3582 76.9126 12.7992 75.94 13.2293 74.9725C13.6586 74.0068 14.0912 73.0225 14.5264 72.0225H14.6859C14.8199 72.3457 14.9649 72.6974 15.1208 73.0733C15.2777 73.451 15.4362 73.8331 15.5979 74.2185C15.76 74.6039 15.9225 74.9879 16.0838 75.3674C16.2452 75.7466 16.3974 76.1016 16.5402 76.4278C16.6822 76.7543 16.8104 77.0464 16.925 77.3035C17.04 77.5613 17.1335 77.7569 17.2065 77.8907Z" fill="black"/>
<path d="M20.8069 74.5822C20.6437 74.3676 20.421 74.2601 20.137 74.2601C19.746 74.2601 19.4597 74.3804 19.2787 74.6206C19.0976 74.8612 19.0074 75.1994 19.0074 75.6345V76.3468C19.0074 76.5991 19.0111 76.8635 19.0191 77.1403C19.0278 77.4174 19.0457 77.6664 19.0738 77.8902C18.9446 77.8789 18.819 77.8723 18.6971 77.8723C18.574 77.8723 18.4485 77.8789 18.3203 77.8902C18.3477 77.6668 18.3667 77.4174 18.3747 77.1403C18.3824 76.8635 18.3871 76.5995 18.3871 76.3468V75.4751C18.3871 75.2239 18.3824 74.9592 18.3747 74.6831C18.3667 74.4063 18.3477 74.1482 18.3203 73.9069C18.4766 73.9357 18.6018 73.9493 18.6971 73.9493C18.7416 73.9493 18.7902 73.9452 18.8431 73.9368C18.8964 73.9273 18.9588 73.9197 19.0315 73.9069C19.0151 74.1303 19.0074 74.3551 19.0074 74.5778H19.0231C19.1801 74.3387 19.3677 74.1522 19.5861 74.0213C19.8036 73.8897 20.0643 73.8242 20.367 73.8242C20.5229 73.8242 20.6817 73.8465 20.8416 73.8908C21.0008 73.9361 21.145 74.0122 21.2735 74.1211C21.4027 74.2308 21.5068 74.3793 21.5885 74.5657C21.6696 74.7541 21.7108 74.9921 21.7108 75.2824C21.7108 75.5234 21.7043 75.7709 21.6937 76.025C21.6827 76.2795 21.6776 76.5483 21.6776 76.8342V77.3787C21.6776 77.4683 21.678 77.5567 21.6813 77.643C21.6831 77.7293 21.6886 77.8116 21.6937 77.8906C21.5812 77.8792 21.4615 77.8727 21.3374 77.8727C21.2191 77.8727 21.1033 77.8792 20.9905 77.8906C21.0019 77.5999 21.0143 77.3012 21.0278 76.9933C21.042 76.6861 21.0493 76.3702 21.0493 76.0459V75.5354C21.0493 75.1161 20.9683 74.7983 20.8069 74.5822Z" fill="black"/>
<path d="M23.3981 77.2947C23.4565 77.3623 23.527 77.4249 23.6069 77.4841C23.6883 77.5422 23.7803 77.5927 23.8836 77.6307C23.9862 77.6702 24.0969 77.6892 24.2144 77.6892C24.3199 77.6892 24.4218 77.6724 24.5196 77.6388C24.6175 77.6059 24.7036 77.558 24.7788 77.4965C24.854 77.4351 24.9143 77.3565 24.9588 77.2614C25.0037 77.1667 25.0256 77.057 25.0256 76.9342C25.0256 76.7605 24.9771 76.6285 24.8796 76.536C24.7818 76.4435 24.6609 76.3678 24.5145 76.3096C24.3696 76.2511 24.2108 76.1988 24.0377 76.1542C23.8647 76.1096 23.7055 76.0475 23.5605 75.9663C23.416 75.8851 23.2944 75.7765 23.1966 75.6431C23.0984 75.5096 23.0502 75.3231 23.0502 75.0891C23.0502 74.9048 23.0805 74.7363 23.1414 74.5812C23.2031 74.4288 23.2926 74.2953 23.4098 74.1834C23.527 74.0719 23.6715 73.9834 23.845 73.9198C24.018 73.8551 24.2162 73.8232 24.4386 73.8232C24.6452 73.8232 24.8197 73.8507 24.9621 73.9062C25.1049 73.9622 25.2396 74.013 25.3684 74.0569C25.3239 74.141 25.2819 74.2456 25.2425 74.3677C25.2038 74.4909 25.1786 74.586 25.1676 74.6533H25.0669C25.0216 74.5191 24.9355 74.398 24.8073 74.2931C24.6788 74.1856 24.5196 74.134 24.3298 74.134C24.2462 74.134 24.1626 74.1476 24.0786 74.1757C23.995 74.2035 23.9198 74.2452 23.8533 74.3004C23.7858 74.356 23.7303 74.4295 23.6858 74.5191C23.6409 74.6079 23.619 74.7143 23.619 74.8372C23.619 75.0174 23.6679 75.1542 23.765 75.2522C23.8632 75.3513 23.984 75.4277 24.1294 75.4829C24.2743 75.5396 24.4342 75.5868 24.6065 75.6299C24.7796 75.6712 24.9387 75.7301 25.0837 75.805C25.2283 75.8826 25.3498 75.9857 25.4477 76.1206C25.5455 76.2541 25.5948 76.4383 25.5948 76.6735C25.5948 76.8347 25.5597 76.9952 25.4904 77.1521C25.4207 77.3086 25.3199 77.4494 25.1888 77.5744C25.0574 77.6998 24.9 77.7978 24.7157 77.8684C24.5324 77.9386 24.3225 77.9726 24.0881 77.9726C23.8311 77.9726 23.616 77.9477 23.4434 77.8969C23.2699 77.8479 23.125 77.7883 23.0078 77.721C23.0414 77.6497 23.0761 77.5492 23.113 77.4241C23.1491 77.298 23.167 77.1938 23.167 77.1097H23.2674C23.2962 77.1674 23.3389 77.2285 23.3981 77.2947Z" fill="black"/>
<path d="M28.7146 75.8874C28.5905 75.9097 28.4634 75.9328 28.3364 75.9587C28.2082 75.9832 28.0819 76.0158 27.9567 76.056C27.8318 76.094 27.7212 76.1474 27.6237 76.214C27.527 76.2816 27.4488 76.3657 27.3908 76.4655C27.3324 76.5661 27.3032 76.6948 27.3032 76.8513C27.3032 77.1142 27.3784 77.3124 27.5281 77.4469C27.6781 77.5811 27.8446 77.648 28.0271 77.648C28.2393 77.648 28.432 77.5903 28.6069 77.4725C28.781 77.3548 28.9165 77.2177 29.0103 77.0615L29.0435 75.8033C28.9497 75.8366 28.8398 75.8651 28.7146 75.8874ZM27.6708 73.9254C27.8833 73.8577 28.1013 73.8252 28.3243 73.8252C28.5251 73.8252 28.7095 73.8548 28.8778 73.9122C29.045 73.9711 29.1885 74.0559 29.3071 74.1649C29.4261 74.2724 29.5196 74.4051 29.5875 74.559C29.6551 74.7115 29.6883 74.8808 29.6883 75.064C29.6883 75.3843 29.6832 75.701 29.6722 76.0165C29.6609 76.3328 29.6558 76.6677 29.6558 77.018C29.6558 77.0864 29.6572 77.157 29.6598 77.2327C29.6624 77.3076 29.6748 77.3742 29.6974 77.4338C29.72 77.493 29.7518 77.5413 29.7934 77.5808C29.8361 77.6202 29.8986 77.6378 29.9818 77.6378C30.0103 77.6378 30.0395 77.6378 30.0702 77.6345C30.1008 77.6316 30.13 77.6224 30.1585 77.606V77.7895C30.0968 77.8177 30.0198 77.84 29.9274 77.8568C29.8361 77.8729 29.7339 77.882 29.6218 77.882C29.4411 77.882 29.3024 77.836 29.2064 77.7431C29.11 77.6517 29.0538 77.5328 29.0359 77.387C28.8362 77.5895 28.639 77.7369 28.4441 77.8316C28.2491 77.9263 28.0103 77.9738 27.7267 77.9738C27.5869 77.9738 27.4507 77.9548 27.3178 77.9157C27.1845 77.8762 27.0659 77.8118 26.9626 77.7223C26.8603 77.6338 26.7771 77.5259 26.7128 77.4001C26.6482 77.2736 26.6172 77.1306 26.6172 76.9683C26.6172 76.6334 26.7205 76.3723 26.9301 76.1891C27.1385 76.0041 27.4255 75.8816 27.7931 75.8198C28.0932 75.769 28.3287 75.7262 28.4985 75.6904C28.6679 75.6531 28.7931 75.6154 28.8738 75.5766C28.9537 75.5386 29.0019 75.4922 29.0191 75.4381C29.0355 75.3847 29.0439 75.3163 29.0439 75.2326C29.0439 75.0933 29.0286 74.9587 28.9942 74.8311C28.9618 74.7017 28.9074 74.5901 28.8351 74.4951C28.7632 74.3989 28.6675 74.3232 28.5507 74.2636C28.4331 74.2055 28.2907 74.1759 28.1239 74.1759C27.9005 74.1759 27.6916 74.227 27.5003 74.3276C27.3079 74.4285 27.1634 74.5678 27.0688 74.7466H26.9768V74.31C27.2283 74.1206 27.4591 73.9919 27.6708 73.9254Z" fill="black"/>
<path d="M33.1754 74.5042C33.094 74.4768 33.0125 74.4622 32.9282 74.4622C32.795 74.4622 32.6745 74.4925 32.5693 74.5536C32.4624 74.6161 32.3733 74.6984 32.3006 74.8015C32.2283 74.9053 32.1725 75.0285 32.1334 75.1708C32.0944 75.313 32.0746 75.4651 32.0746 75.6278V76.55C32.0746 76.9237 32.075 77.21 32.0783 77.41C32.0812 77.6074 32.0914 77.7691 32.1082 77.8912C31.9969 77.8799 31.8848 77.8744 31.7731 77.8744C31.6508 77.8744 31.5332 77.8799 31.4219 77.8912C31.4383 77.7007 31.4482 77.4418 31.4511 77.1153C31.454 76.7877 31.4551 76.3876 31.4551 75.9119V75.6447C31.4551 75.4267 31.454 75.1752 31.4511 74.8889C31.4485 74.6044 31.4383 74.2771 31.4219 73.9093C31.4828 73.921 31.542 73.9287 31.5975 73.9382C31.6526 73.9466 31.7118 73.9506 31.7731 73.9506C31.8235 73.9506 31.8764 73.9466 31.9323 73.9382C31.9878 73.9287 32.0465 73.921 32.1082 73.9093C32.0856 74.11 32.0732 74.2687 32.0699 74.3857C32.0673 74.5046 32.0666 74.6165 32.0666 74.7225L32.0827 74.7309C32.4116 74.1265 32.7811 73.8252 33.1885 73.8252C33.2382 73.8252 33.2816 73.8285 33.3174 73.8332C33.3543 73.8391 33.3999 73.8526 33.4561 73.8742C33.4276 73.9418 33.4112 74.0442 33.4057 74.1806C33.3999 74.3177 33.3973 74.4413 33.3973 74.5536L33.3382 74.5967C33.3097 74.562 33.2561 74.5316 33.1754 74.5042Z" fill="black"/>
<path d="M34.7454 74.6844C34.737 74.4076 34.7188 74.1494 34.691 73.9081C34.8469 73.937 34.9729 73.9505 35.0674 73.9505C35.1631 73.9505 35.2879 73.937 35.4449 73.9081C35.4164 74.1494 35.3985 74.4076 35.3909 74.6844C35.3817 74.9604 35.3777 75.2244 35.3777 75.4764V76.3481C35.3777 76.6004 35.3817 76.8647 35.3909 77.1415C35.3985 77.4176 35.4168 77.6677 35.4449 77.8915C35.316 77.8801 35.1904 77.8746 35.0674 77.8746C34.9455 77.8746 34.8192 77.8801 34.691 77.8915C34.7188 77.668 34.737 77.4176 34.7454 77.1415C34.7538 76.8647 34.7578 76.6007 34.7578 76.3481V75.4764C34.7578 75.2241 34.7538 74.9604 34.7454 74.6844ZM34.7666 72.1482C34.8498 72.0638 34.9506 72.0225 35.0674 72.0225C35.1857 72.0225 35.2854 72.0634 35.369 72.1482C35.4529 72.2323 35.4953 72.3322 35.4953 72.4492C35.4953 72.5669 35.4533 72.6671 35.369 72.7512C35.2854 72.8349 35.1857 72.8777 35.0674 72.8777C34.9506 72.8777 34.8498 72.8353 34.7666 72.7512C34.683 72.6671 34.6406 72.5669 34.6406 72.4492C34.6406 72.3322 34.683 72.2327 34.7666 72.1482Z" fill="black"/>
<path d="M42.5746 72.6722C42.4552 72.5405 42.2906 72.474 42.0854 72.474C41.8675 72.474 41.6944 72.5497 41.5655 72.7014C41.4378 72.8521 41.3731 73.0382 41.3731 73.2627C41.3731 73.4302 41.4224 73.6258 41.5203 73.8499C41.6174 74.073 41.7444 74.2799 41.9003 74.4701C42.1847 74.2913 42.3987 74.0821 42.5414 73.8444C42.6834 73.6079 42.7542 73.383 42.7542 73.1695C42.7542 72.9687 42.6936 72.8031 42.5746 72.6722ZM40.6035 76.8969C40.6645 77.0406 40.7499 77.1652 40.8587 77.2738C40.9668 77.3835 41.0968 77.4698 41.2475 77.5342C41.3987 77.5993 41.5626 77.6311 41.7419 77.6311C42.0263 77.6311 42.2687 77.5792 42.4695 77.476C42.6714 77.3733 42.8689 77.2237 43.0646 77.0267C42.7802 76.6917 42.5085 76.3594 42.2515 76.0295C41.9956 75.7001 41.7419 75.3589 41.4907 75.0072C41.1833 75.1904 40.9434 75.3919 40.7704 75.6101C40.5973 75.8273 40.5115 76.1104 40.5115 76.4566C40.5112 76.6076 40.5415 76.755 40.6035 76.8969ZM40.8832 73.0027C40.9478 72.8521 41.0365 72.719 41.1519 72.6045C41.2658 72.4901 41.4009 72.4001 41.5575 72.3362C41.7138 72.2718 41.8864 72.2393 42.0756 72.2393C42.3994 72.2393 42.6659 72.3193 42.8755 72.4784C43.0854 72.6378 43.1887 72.8715 43.1887 73.1779C43.1887 73.3355 43.1529 73.4868 43.0803 73.6316C43.008 73.7764 42.9142 73.9128 42.8006 74.0371C42.6856 74.1633 42.5615 74.2781 42.4271 74.3812C42.2931 74.4851 42.1646 74.5735 42.0427 74.6452C42.2931 74.9699 42.5388 75.2873 42.7798 75.5974C43.0189 75.9071 43.265 76.1992 43.5158 76.4731C43.7177 76.1879 43.9006 75.9155 44.0634 75.6555C44.2285 75.3962 44.3778 75.1158 44.5121 74.813C44.5461 74.8854 44.5921 74.9483 44.6498 75.0024C44.7082 75.0555 44.7688 75.1045 44.8305 75.148C44.6571 75.4171 44.484 75.6771 44.3106 75.929C44.1379 76.1798 43.9342 76.4394 43.7005 76.7093L44.7717 77.8903C44.6819 77.879 44.5932 77.8724 44.5045 77.8724H44.2358H43.9966C43.9159 77.8724 43.8371 77.879 43.7582 77.8903C43.7141 77.8282 43.6454 77.7357 43.5538 77.6084C43.4618 77.4837 43.3544 77.3488 43.2318 77.2022C42.9853 77.4486 42.7221 77.6431 42.4406 77.7854C42.1592 77.9287 41.8196 78 41.4235 78C41.2059 78 41.0007 77.973 40.808 77.9199C40.6156 77.8666 40.4473 77.7814 40.3012 77.6643C40.1563 77.5477 40.0406 77.4 39.9544 77.2245C39.8675 77.0475 39.8241 76.8431 39.8241 76.6073C39.8241 76.423 39.8631 76.242 39.942 76.0665C40.0201 75.8913 40.1275 75.7235 40.2647 75.563C40.4009 75.405 40.5612 75.261 40.7456 75.1322C40.9296 75.0035 41.1311 74.8946 41.3487 74.805C41.1858 74.5695 41.0515 74.3465 40.9456 74.1351C40.8401 73.9216 40.7872 73.7099 40.7872 73.4963C40.7875 73.319 40.8193 73.1534 40.8832 73.0027Z" fill="black"/>
<path d="M49.1918 75.2826C49.3363 75.2826 49.4871 75.2859 49.6434 75.2921C49.7993 75.2968 49.9497 75.2997 50.0957 75.2997C50.2516 75.2997 50.4082 75.2986 50.5637 75.2946C50.7207 75.2928 50.8759 75.2884 51.0332 75.2826L50.1034 73.1534L49.1918 75.2826ZM52.8995 77.8907C52.8218 77.8794 52.7477 77.8739 52.6783 77.8739H52.4567H52.2344C52.1646 77.8739 52.0909 77.8794 52.0131 77.8907C51.9737 77.762 51.9208 77.607 51.8536 77.4253C51.7868 77.2443 51.713 77.0538 51.6331 76.8548C51.5513 76.6567 51.4688 76.4556 51.3848 76.2519C51.3012 76.0482 51.2227 75.8537 51.1504 75.6683C50.9719 75.6628 50.7905 75.6592 50.6068 75.657C50.4225 75.6533 50.2385 75.6515 50.0537 75.6515C49.8807 75.6515 49.7109 75.6533 49.5433 75.657C49.3761 75.6592 49.2056 75.6632 49.0333 75.6683C48.8544 76.1049 48.692 76.5199 48.5485 76.9137C48.4021 77.3075 48.294 77.6337 48.221 77.8907C48.1268 77.8794 48.0228 77.8739 47.911 77.8739C47.7997 77.8739 47.6964 77.8794 47.6015 77.8907C48.0531 76.9126 48.4937 75.94 48.9245 74.9725C49.3539 74.0068 49.7861 73.0225 50.2217 72.0225H50.3812C50.5152 72.3457 50.6605 72.6974 50.816 73.0733C50.9723 73.451 51.1304 73.8331 51.2943 74.2185C51.4553 74.6039 51.6177 74.9879 51.7795 75.3674C51.9401 75.7466 52.0927 76.1016 52.2347 76.4278C52.3782 76.7543 52.5053 77.0464 52.6206 77.3035C52.7338 77.5613 52.8276 77.7569 52.8995 77.8907Z" fill="black"/>
<path d="M54.1012 77.2947C54.1593 77.3623 54.229 77.4249 54.31 77.4841C54.3915 77.5422 54.4835 77.5927 54.586 77.6307C54.6901 77.6702 54.8003 77.6892 54.9164 77.6892C55.023 77.6892 55.1253 77.6724 55.2224 77.6388C55.3195 77.6059 55.4064 77.558 55.4823 77.4965C55.5579 77.4351 55.6174 77.3565 55.6623 77.2614C55.7072 77.1667 55.7295 77.057 55.7295 76.9342C55.7295 76.7605 55.6798 76.6285 55.582 76.536C55.4852 76.4435 55.3648 76.3678 55.2191 76.3096C55.0734 76.2511 54.9146 76.1988 54.7408 76.1542C54.5682 76.1096 54.4086 76.0475 54.2637 75.9663C54.1187 75.8851 53.9975 75.7765 53.8997 75.6431C53.8018 75.5096 53.7537 75.3231 53.7537 75.0891C53.7537 74.9048 53.7843 74.7363 53.8464 74.5812C53.9074 74.4288 53.9968 74.2953 54.114 74.1834C54.2297 74.0719 54.3758 73.9834 54.5488 73.9198C54.7215 73.8551 54.9194 73.8232 55.1435 73.8232C55.3491 73.8232 55.5243 73.8507 55.6656 73.9062C55.8091 73.9622 55.9438 74.013 56.0727 74.0569C56.0281 74.141 55.9861 74.2456 55.9467 74.3677C55.9073 74.4909 55.8825 74.586 55.8708 74.6533H55.7711C55.7266 74.5191 55.6404 74.398 55.5112 74.2931C55.3834 74.1856 55.2242 74.134 55.034 74.134C54.9504 74.134 54.8672 74.1476 54.7828 74.1757C54.6989 74.2035 54.6233 74.2452 54.5565 74.3004C54.4893 74.356 54.4345 74.4295 54.3889 74.5191C54.3447 74.6079 54.3225 74.7143 54.3225 74.8372C54.3225 75.0174 54.3714 75.1542 54.4678 75.2522C54.5667 75.3513 54.6883 75.4277 54.8332 75.4829C54.9774 75.5396 55.1373 75.5868 55.3104 75.6299C55.4838 75.6712 55.6422 75.7301 55.7872 75.805C55.9317 75.8826 56.054 75.9857 56.1519 76.1206C56.2494 76.2541 56.2979 76.4383 56.2979 76.6735C56.2979 76.8347 56.2625 76.9952 56.1924 77.1521C56.1241 77.3086 56.0227 77.4494 55.8916 77.5744C55.7602 77.6998 55.6028 77.7978 55.4184 77.8684C55.2344 77.9386 55.0249 77.9726 54.7916 77.9726C54.5346 77.9726 54.3192 77.9477 54.1465 77.8969C53.9731 77.8479 53.8274 77.7883 53.7109 77.721C53.7445 77.6497 53.7785 77.5492 53.8154 77.4241C53.8522 77.298 53.8694 77.1938 53.8694 77.1097H53.9705C53.999 77.1674 54.0424 77.2285 54.1012 77.2947Z" fill="black"/>
<path d="M57.6946 77.2947C57.7534 77.3623 57.8231 77.4249 57.9038 77.4841C57.9852 77.5422 58.0768 77.5927 58.1805 77.6307C58.2838 77.6702 58.3941 77.6892 58.5106 77.6892C58.6172 77.6892 58.7187 77.6724 58.8161 77.6388C58.9143 77.6059 59.0005 77.558 59.0757 77.4965C59.1516 77.4351 59.2104 77.3565 59.2564 77.2614C59.3002 77.1667 59.3229 77.057 59.3229 76.9342C59.3229 76.7605 59.2736 76.6285 59.1761 76.536C59.079 76.4435 58.9578 76.3678 58.8125 76.3096C58.6668 76.2511 58.5087 76.1988 58.335 76.1542C58.1619 76.1096 58.0035 76.0475 57.8574 75.9663C57.7132 75.8851 57.5913 75.7765 57.4942 75.6431C57.3956 75.5096 57.347 75.3231 57.347 75.0891C57.347 74.9048 57.3777 74.7363 57.4398 74.5812C57.5007 74.4288 57.5902 74.2953 57.7077 74.1834C57.8238 74.0719 57.9699 73.9834 58.1426 73.9198C58.316 73.8551 58.5135 73.8232 58.7373 73.8232C58.9425 73.8232 59.1173 73.8507 59.2597 73.9062C59.4028 73.9622 59.5375 74.013 59.6668 74.0569C59.6215 74.141 59.5799 74.2456 59.5405 74.3677C59.501 74.4909 59.4758 74.586 59.4653 74.6533H59.3645C59.3203 74.5191 59.2334 74.398 59.1053 74.2931C58.9775 74.1856 58.8183 74.134 58.6281 74.134C58.5441 74.134 58.4605 74.1476 58.3769 74.1757C58.293 74.2035 58.217 74.2452 58.1502 74.3004C58.0834 74.356 58.0283 74.4295 57.983 74.5191C57.9381 74.6079 57.9158 74.7143 57.9158 74.8372C57.9158 75.0174 57.9655 75.1542 58.0619 75.2522C58.1604 75.3513 58.2817 75.4277 58.4266 75.4829C58.5712 75.5396 58.7314 75.5868 58.9041 75.6299C59.0775 75.6712 59.2356 75.7301 59.3809 75.805C59.5255 75.8826 59.6478 75.9857 59.7456 76.1206C59.8435 76.2541 59.892 76.4383 59.892 76.6735C59.892 76.8347 59.8559 76.9952 59.7862 77.1521C59.7175 77.3086 59.6164 77.4494 59.4857 77.5744C59.3543 77.6998 59.1969 77.7978 59.0122 77.8684C58.8282 77.9386 58.6194 77.9726 58.385 77.9726C58.128 77.9726 57.9133 77.9477 57.7406 77.8969C57.5668 77.8479 57.4215 77.7883 57.3047 77.721C57.3386 77.6497 57.373 77.5492 57.4095 77.4241C57.4463 77.298 57.4635 77.1938 57.4635 77.1097H57.5639C57.5931 77.1674 57.6358 77.2285 57.6946 77.2947Z" fill="black"/>
<path d="M61.65 76.5903C61.6923 76.809 61.7632 77.0039 61.8643 77.1743C61.9636 77.3443 62.0976 77.4799 62.2652 77.5805C62.4327 77.6807 62.6397 77.7311 62.8854 77.7311C63.1304 77.7311 63.337 77.6807 63.5043 77.5805C63.6722 77.4799 63.8051 77.3443 63.9062 77.1743C64.0066 77.0039 64.0782 76.809 64.1202 76.5903C64.1614 76.372 64.1826 76.1468 64.1826 75.9113C64.1826 75.6773 64.1614 75.451 64.1202 75.2327C64.0782 75.0144 64.0066 74.8206 63.9062 74.6502C63.8055 74.4795 63.6722 74.3449 63.5043 74.2436C63.337 74.1427 63.1304 74.0926 62.8854 74.0926C62.6397 74.0926 62.4327 74.1427 62.2652 74.2436C62.0976 74.3449 61.964 74.4798 61.8643 74.6502C61.7632 74.8206 61.6923 75.0144 61.65 75.2327C61.6084 75.4513 61.5868 75.6777 61.5868 75.9113C61.5868 76.1468 61.6084 76.372 61.65 76.5903ZM61.0312 74.9435C61.1506 74.678 61.3076 74.4626 61.504 74.297C61.6989 74.1328 61.9183 74.0122 62.1608 73.9372C62.4039 73.8615 62.6452 73.8242 62.8854 73.8242C63.1304 73.8242 63.3736 73.8615 63.6131 73.9372C63.8529 74.0122 64.0709 74.1328 64.2658 74.297C64.4615 74.4623 64.6192 74.678 64.7386 74.9435C64.8591 75.2086 64.919 75.5318 64.919 75.911C64.919 76.292 64.8591 76.6145 64.7386 76.8792C64.6192 77.1447 64.4615 77.3593 64.2658 77.5253C64.0709 77.6909 63.8529 77.8061 63.6131 77.8723C63.3736 77.9407 63.1304 77.9732 62.8854 77.9732C62.6452 77.9732 62.4039 77.9403 62.1608 77.8723C61.9183 77.8057 61.6989 77.6909 61.504 77.5253C61.3076 77.3597 61.1506 77.1447 61.0312 76.8792C60.9111 76.6141 60.8516 76.292 60.8516 75.911C60.8516 75.5318 60.9111 75.2082 61.0312 74.9435Z" fill="black"/>
<path d="M66.0835 74.9726C66.2066 74.7104 66.3668 74.4932 66.5647 74.3239C66.7633 74.1532 66.9908 74.0263 67.2478 73.9466C67.5033 73.8651 67.7662 73.8252 68.0335 73.8252C68.3405 73.8252 68.6158 73.8625 68.8585 73.9382C69.1006 74.0131 69.2755 74.0983 69.3813 74.1941C69.3434 74.2771 69.308 74.3656 69.2769 74.4581C69.247 74.5495 69.2203 74.6464 69.1981 74.7477H69.1309C69.0915 74.675 69.0385 74.6015 68.9714 74.5247C68.9049 74.449 68.8257 74.3795 68.7333 74.3152C68.6409 74.2519 68.5395 74.1985 68.4274 74.1568C68.3157 74.1141 68.1926 74.0932 68.0586 74.0932C67.8075 74.0932 67.5913 74.1393 67.4103 74.2318C67.2284 74.3243 67.0813 74.4512 66.9663 74.6132C66.8524 74.7759 66.7688 74.9671 66.7151 75.1876C66.6618 75.4084 66.6352 75.6468 66.6352 75.9039C66.6352 76.4802 66.7586 76.9156 67.0043 77.2078C67.2493 77.5018 67.6096 77.6491 68.0831 77.6491C68.1959 77.6491 68.3102 77.6323 68.427 77.6023C68.5438 77.5709 68.6592 77.5292 68.7695 77.4762C68.8823 77.4232 68.9863 77.3595 69.0842 77.2868C69.1813 77.214 69.2663 77.1361 69.3394 77.0517L69.3802 77.0776C69.3529 77.2114 69.3361 77.3489 69.331 77.4871C69.1634 77.6224 68.9553 77.7372 68.707 77.8316C68.4588 77.9259 68.1999 77.9738 67.9327 77.9738C67.6928 77.9738 67.4511 77.9398 67.2084 77.8696C66.9656 77.8005 66.7465 77.682 66.5512 77.5175C66.3559 77.3519 66.1982 77.1391 66.0792 76.8754C65.9587 76.6136 65.8984 76.2922 65.8984 75.9112C65.8995 75.5492 65.9609 75.2359 66.0835 74.9726Z" fill="black"/>
<path d="M70.9091 74.6844C70.9011 74.4076 70.8835 74.1494 70.8551 73.9081C71.0113 73.937 71.1369 73.9505 71.2326 73.9505C71.326 73.9505 71.452 73.937 71.6086 73.9081C71.5798 74.1494 71.5626 74.4076 71.5546 74.6844C71.5465 74.9604 71.5422 75.2244 71.5422 75.4764V76.3481C71.5422 76.6004 71.5465 76.8647 71.5546 77.1415C71.5626 77.4176 71.5798 77.6677 71.6086 77.8915C71.4797 77.8801 71.3549 77.8746 71.2326 77.8746C71.1092 77.8746 70.9825 77.8801 70.8551 77.8915C70.8835 77.668 70.9011 77.4176 70.9091 77.1415C70.9179 76.8647 70.9215 76.6007 70.9215 76.3481V75.4764C70.9219 75.2241 70.9182 74.9604 70.9091 74.6844ZM70.9303 72.1482C71.0139 72.0638 71.1146 72.0225 71.2326 72.0225C71.3479 72.0225 71.4498 72.0634 71.533 72.1482C71.6166 72.2323 71.659 72.3322 71.659 72.4492C71.659 72.5669 71.6166 72.6671 71.533 72.7512C71.4494 72.8349 71.3479 72.8777 71.2326 72.8777C71.1146 72.8777 71.0139 72.8353 70.9303 72.7512C70.8467 72.6671 70.8047 72.5669 70.8047 72.4492C70.8047 72.3322 70.8467 72.2327 70.9303 72.1482Z" fill="black"/>
<path d="M75.1813 75.8872C75.0565 75.9095 74.9301 75.9325 74.802 75.9585C74.6742 75.983 74.5483 76.0155 74.4227 76.0558C74.2982 76.0938 74.1872 76.1472 74.0908 76.2137C73.9922 76.2814 73.9152 76.3655 73.8572 76.4653C73.7984 76.5658 73.7695 76.6945 73.7695 76.851C73.7695 77.1139 73.8444 77.3121 73.9937 77.4467C74.1434 77.5809 74.3113 77.6478 74.4935 77.6478C74.7045 77.6478 74.8976 77.59 75.0736 77.4723C75.2478 77.3545 75.3828 77.2174 75.4767 77.0613L75.511 75.8031C75.4161 75.8364 75.3062 75.8649 75.1813 75.8872ZM74.1372 73.9251C74.3489 73.8575 74.5672 73.825 74.7899 73.825C74.9911 73.825 75.1751 73.8546 75.343 73.912C75.511 73.9708 75.6548 74.0557 75.7735 74.1646C75.8914 74.2721 75.9849 74.4049 76.0531 74.5588C76.1207 74.7113 76.155 74.8806 76.155 75.0638C76.155 75.3841 76.1488 75.7007 76.1382 76.0163C76.1272 76.3326 76.121 76.6675 76.121 77.0178C76.121 77.0862 76.1225 77.1567 76.1258 77.2324C76.1283 77.3074 76.1404 77.3739 76.163 77.4335C76.1857 77.4928 76.2178 77.541 76.2605 77.5805C76.3018 77.62 76.3642 77.6375 76.4485 77.6375C76.4755 77.6375 76.5055 77.6375 76.5361 77.6343C76.5657 77.6313 76.5964 77.6222 76.6238 77.6057V77.7893C76.5621 77.8174 76.4858 77.8397 76.3938 77.8566C76.3018 77.8727 76.1999 77.8818 76.0882 77.8818C75.9071 77.8818 75.7673 77.8357 75.672 77.7429C75.5752 77.6514 75.5179 77.5326 75.5022 77.3867C75.3014 77.5893 75.1032 77.7366 74.9108 77.8313C74.7155 77.926 74.4763 77.9736 74.1923 77.9736C74.0532 77.9736 73.9163 77.9546 73.7841 77.9154C73.6501 77.8759 73.533 77.8116 73.4293 77.722C73.3263 77.6335 73.242 77.5257 73.1781 77.3999C73.1149 77.2734 73.0821 77.1304 73.0821 76.9681C73.0821 76.6331 73.1861 76.372 73.3946 76.1889C73.6034 76.0038 73.8911 75.8813 74.258 75.8196C74.5588 75.7687 74.7936 75.7259 74.963 75.6901C75.1331 75.6528 75.2576 75.6152 75.3387 75.5764C75.4201 75.5384 75.4679 75.4919 75.4843 75.4378C75.5015 75.3844 75.5103 75.3161 75.5103 75.2323C75.5103 75.093 75.4927 74.9585 75.4588 74.8308C75.4252 74.7014 75.3726 74.5899 75.3003 74.4948C75.2269 74.3987 75.1324 74.323 75.0148 74.2634C74.8987 74.2052 74.756 74.1756 74.588 74.1756C74.3653 74.1756 74.1572 74.2268 73.9648 74.3274C73.7725 74.4283 73.629 74.5676 73.5348 74.7464H73.441V74.3098C73.694 74.1204 73.9251 73.9917 74.1372 73.9251Z" fill="black"/>
<path d="M78.6508 72.7842C78.6333 72.9959 78.6212 73.205 78.6128 73.4087C78.6041 73.6131 78.5946 73.8179 78.584 74.0256C78.6449 74.0256 78.7589 74.0234 78.9275 74.0215C79.094 74.0182 79.2751 74.0113 79.4704 74C79.4646 74.016 79.4624 74.0475 79.4624 74.0921V74.1766V74.2676C79.4624 74.3071 79.4649 74.3356 79.4704 74.3517C79.3981 74.3459 79.3222 74.3433 79.2448 74.3396C79.1659 74.3363 79.083 74.3353 78.994 74.3353H78.5836C78.5774 74.3568 78.5705 74.4475 78.5617 74.6036C78.554 74.7598 78.546 74.9459 78.5402 75.1605C78.5354 75.3762 78.5314 75.6008 78.5281 75.8355C78.5245 76.0695 78.5237 76.279 78.5237 76.4644C78.5237 76.6213 78.5281 76.7752 78.5365 76.9248C78.5449 77.0769 78.5723 77.2118 78.6165 77.3317C78.6617 77.4517 78.7282 77.5486 78.8176 77.6217C78.9067 77.693 79.0352 77.7306 79.2021 77.7306C79.2473 77.7306 79.3072 77.7255 79.3817 77.7142C79.4565 77.7025 79.5237 77.6886 79.5788 77.6718V77.8721C79.4839 77.8901 79.3795 77.9109 79.2656 77.9361C79.1509 77.9606 79.0411 77.9734 78.9348 77.9734C78.5836 77.9734 78.3237 77.8871 78.1568 77.7146C77.9889 77.5405 77.9057 77.286 77.9057 76.9511C77.9057 76.8004 77.9078 76.6374 77.9133 76.4604C77.9184 76.2845 77.9254 76.0918 77.9349 75.8834C77.9425 75.6721 77.9491 75.4399 77.9557 75.1865C77.9615 74.9331 77.9633 74.6486 77.9633 74.3356H77.6961C77.6508 74.3356 77.6041 74.3367 77.5537 74.34C77.503 74.3437 77.4511 74.3466 77.3945 74.3521C77.3993 74.3181 77.4029 74.2866 77.4062 74.2559C77.4095 74.2256 77.4102 74.193 77.4102 74.1601C77.4102 74.1316 77.4095 74.1023 77.4062 74.076C77.4029 74.0475 77.3989 74.0193 77.3945 73.9915C77.6457 74.0087 77.8286 74.016 77.9469 74.016C77.9407 73.9053 77.9367 73.7656 77.9349 73.597C77.9319 73.4299 77.9243 73.2559 77.9133 73.0771L78.6073 72.7842H78.6508Z" fill="black"/>
<path d="M81.617 74.2348C81.4746 74.3306 81.3567 74.4476 81.2654 74.5917C81.1734 74.7328 81.1037 74.8897 81.0569 75.0605C81.0091 75.2312 80.9799 75.391 80.969 75.5435C81.142 75.5486 81.3224 75.553 81.5078 75.5592C81.6958 75.5658 81.8784 75.5676 82.0573 75.5676C82.2405 75.5676 82.4289 75.5654 82.6177 75.5592C82.8079 75.553 82.9915 75.5486 83.1704 75.5435C83.1704 75.391 83.1584 75.232 83.1324 75.0634C83.1087 74.8974 83.0576 74.7405 82.9817 74.5961C82.9072 74.4502 82.8024 74.3306 82.6688 74.2352C82.5337 74.1405 82.3585 74.0922 82.1412 74.0922C81.9339 74.0922 81.759 74.1401 81.617 74.2348ZM80.6962 74.4107C81.0226 74.0195 81.4987 73.8242 82.1237 73.8242C82.4187 73.8242 82.6746 73.8707 82.8893 73.9621C83.1043 74.0549 83.2843 74.1778 83.4296 74.3317C83.5742 74.4842 83.6812 74.6656 83.752 74.8722C83.821 75.0795 83.8557 75.2996 83.8557 75.5351C83.8557 75.5896 83.8546 75.6437 83.8513 75.6971C83.8491 75.7508 83.8444 75.8053 83.8392 75.8612C83.5384 75.8547 83.2391 75.8499 82.9437 75.8437C82.648 75.8378 82.3493 75.836 82.0485 75.836C81.8634 75.836 81.6805 75.8382 81.5005 75.8437C81.3187 75.8499 81.1358 75.8547 80.9507 75.8612C80.946 75.8883 80.943 75.9307 80.943 75.9867V76.0963C80.943 76.3143 80.9755 76.5187 81.0394 76.7081C81.1037 76.8986 81.1964 77.0616 81.3205 77.1988C81.4425 77.3352 81.5936 77.4441 81.7718 77.5257C81.9503 77.6068 82.1577 77.6474 82.3913 77.6474C82.503 77.6474 82.6173 77.6317 82.7349 77.6017C82.8524 77.5703 82.9656 77.5286 83.0773 77.4756C83.1898 77.4225 83.2935 77.3589 83.3906 77.2862C83.4895 77.2134 83.5738 77.1355 83.6461 77.051L83.6881 77.077L83.6385 77.4876C83.4702 77.6218 83.2628 77.7366 83.0142 77.831C82.7663 77.9257 82.5074 77.9732 82.2395 77.9732C81.9394 77.9732 81.6641 77.9279 81.4151 77.8354C81.1668 77.7425 80.9522 77.6079 80.7704 77.4328C80.5889 77.2573 80.4502 77.0485 80.352 76.8083C80.2552 76.5673 80.207 76.3084 80.207 76.0283C80.2074 75.3413 80.3702 74.8027 80.6962 74.4107Z" fill="black"/>
<path d="M85.1555 77.2947C85.214 77.3623 85.283 77.4249 85.3647 77.4841C85.4454 77.5422 85.5378 77.5927 85.6407 77.6307C85.7448 77.6702 85.855 77.6892 85.9715 77.6892C86.0774 77.6892 86.1803 77.6724 86.2771 77.6388C86.3745 77.6059 86.4614 77.558 86.5367 77.4965C86.6126 77.4351 86.6717 77.3565 86.7166 77.2614C86.7612 77.1667 86.7845 77.057 86.7845 76.9342C86.7845 76.7605 86.7349 76.6285 86.6367 76.536C86.5399 76.4435 86.418 76.3678 86.2738 76.3096C86.1278 76.2511 85.9689 76.1988 85.7948 76.1542C85.6228 76.1096 85.4633 76.0475 85.3184 75.9663C85.1734 75.8851 85.0522 75.7765 84.9544 75.6431C84.8565 75.5096 84.8083 75.3231 84.8083 75.0891C84.8083 74.9048 84.8386 74.7363 84.9007 74.5812C84.9617 74.4288 85.0519 74.2953 85.1687 74.1834C85.2844 74.0719 85.4301 73.9834 85.6035 73.9198C85.7762 73.8551 85.9741 73.8232 86.1979 73.8232C86.4034 73.8232 86.579 73.8507 86.7207 73.9062C86.863 73.9622 86.9985 74.013 87.127 74.0569C87.0821 74.141 87.0408 74.2456 87.0007 74.3677C86.9623 74.4909 86.9368 74.586 86.9258 74.6533H86.8254C86.7813 74.5191 86.6951 74.398 86.5659 74.2931C86.4377 74.1856 86.2785 74.134 86.0883 74.134C86.0051 74.134 85.9215 74.1476 85.8372 74.1757C85.7535 74.2035 85.678 74.2452 85.6108 74.3004C85.5443 74.356 85.4885 74.4295 85.4432 74.5191C85.3983 74.6079 85.3764 74.7143 85.3764 74.8372C85.3764 75.0174 85.4264 75.1542 85.5224 75.2522C85.6207 75.3513 85.7422 75.4277 85.8872 75.4829C86.0321 75.5396 86.1916 75.5868 86.3651 75.6299C86.5385 75.6712 86.6966 75.7301 86.8419 75.805C86.9864 75.8826 87.1084 75.9857 87.2066 76.1206C87.3037 76.2541 87.3522 76.4383 87.3522 76.6735C87.3522 76.8347 87.3172 76.9952 87.2467 77.1521C87.1785 77.3086 87.077 77.4494 86.947 77.5744C86.8148 77.6998 86.6575 77.7978 86.4731 77.8684C86.2899 77.9386 86.0799 77.9726 85.8459 77.9726C85.5889 77.9726 85.3739 77.9477 85.2008 77.8969C85.0278 77.8479 84.8825 77.7883 84.7656 77.721C84.7992 77.6497 84.8339 77.5492 84.8704 77.4241C84.9069 77.298 84.9244 77.1938 84.9244 77.1097H85.0248C85.0537 77.1674 85.0971 77.2285 85.1555 77.2947Z" fill="black"/>
<path d="M58.094 55.1811C57.921 55.2648 57.7133 55.1961 57.6293 55.0242C57.5453 54.8524 57.6158 54.6447 57.783 54.5584C57.9586 54.4747 58.166 54.5441 58.2448 54.716C58.3313 54.8886 58.2634 55.0948 58.094 55.1811ZM58.1003 53.7796C58.1426 53.5744 58.3876 53.3642 58.5719 53.3094L58.5044 53.3167L54.3249 44.9207L54.9806 42.955L54.0829 42.6533L53.2972 45.0114L57.3277 53.0962C57.3277 53.0962 57.4942 53.4234 57.2675 53.5346C57.04 53.6487 56.886 53.3174 56.886 53.3174L52.8544 45.23L50.5018 44.4428L50.2031 45.3427L52.1676 45.999L56.3449 54.395L56.3205 54.4308C56.5008 54.3171 56.7706 54.2571 56.9316 54.3631C56.6352 54.7602 56.6958 55.1972 56.7783 55.3614C57.4186 56.647 59.6745 55.5413 59.0283 54.2377C58.9494 54.0747 58.7329 53.7843 58.1003 53.7796Z" fill="#AF8B18"/>
<path d="M33.0151 54.7822L33.0279 54.7475C33.1429 54.5186 33.2503 54.1862 33.2722 54.1504C39.1274 56.1885 44.6007 56.5823 50.0357 55.316C50.0357 55.316 51.817 54.7266 52.6388 55.2762C46.7744 57.5447 39.801 57.1563 33.0151 54.7822ZM55.3294 54.5562C55.2199 54.3233 55.1743 54.2235 55.0483 53.9514C55.0483 53.9514 54.9472 53.72 54.8282 53.4666C54.8639 53.4165 54.8924 53.3737 54.9216 53.3178C55.2922 52.6 54.0746 51.0672 54.2933 51.5663C54.4872 51.996 54.8475 52.7397 54.0097 53.079C53.0882 53.4918 53.6095 53.9562 53.7406 54.0078C53.7921 54.0264 53.8987 54.0648 54.0436 54.0582C54.2784 54.2794 54.5193 54.8542 54.9081 55.6963C55.098 56.1025 54.2141 56.7563 53.7446 55.7321C53.7391 55.7241 53.7344 55.7197 53.726 55.7091C53.734 55.7069 53.7391 55.704 53.7479 55.7029C53.2244 53.3331 49.9043 54.5661 49.9043 54.5661C44.9377 55.7241 39.5209 55.4594 34.0622 53.5697L33.5814 53.6688C33.5814 53.6688 33.8326 53.3595 33.9311 53.113C34.5671 52.6567 34.4821 50.8628 34.3758 51.3766C34.2809 51.8398 34.1345 52.653 33.2539 52.4326C32.2689 52.2249 32.4179 52.9097 32.496 53.0286C32.5223 53.0702 32.5858 53.1569 32.6906 53.2315C32.7833 53.4717 32.5223 53.9295 32.0528 54.8806C31.6965 55.5979 30.8571 55.2689 31.0619 54.4597L31.093 54.3814L31.1182 54.3884L31.1003 54.3668L31.2361 54.0652H31.2313L35.271 45.9591L37.237 45.3024L36.9318 44.4033L34.5781 45.1902L30.5486 53.2761L30.2365 54.1211C30.2219 54.1419 30.2113 54.1617 30.204 54.1869C30.1898 54.2158 30.1584 54.2765 30.1584 54.2765L30.1642 54.2798C30.005 54.7124 30.0397 55.2455 30.2193 55.546C30.848 56.5863 32.2207 56.6675 32.8038 55.5329C32.8103 55.5234 32.8158 55.5347 32.8651 55.5515C39.8612 57.9436 46.3301 58.4277 52.8312 56.0382L52.8498 56.0188C52.8498 56.0188 52.8852 56.0082 52.9432 55.9896L53.1495 56.5117C53.3686 56.9465 53.8432 57.3004 54.2141 57.3307C55.3959 57.4211 56.2082 56.4726 55.6817 55.3402L55.3294 54.5562Z" fill="#AF8B18"/>
<path d="M54.2367 52.2347C54.2367 51.8797 53.9534 51.5967 53.6044 51.5967C53.2495 51.5967 52.9688 51.8797 52.9688 52.2347C52.9688 52.5854 53.2499 52.8695 53.6044 52.8695C53.953 52.8699 54.2367 52.5854 54.2367 52.2347Z" fill="#AF8B18"/>
<path d="M25.4723 53.0885C25.2266 53.0268 24.9842 53.1193 24.8334 53.3003C24.8502 53.2622 24.8765 53.2275 24.8893 53.1847C24.9732 52.8436 24.7651 52.498 24.4263 52.4125C24.0821 52.328 23.7345 52.5342 23.6531 52.8765C23.5644 53.2176 23.7754 53.5635 24.1182 53.6498C24.361 53.709 24.6034 53.6173 24.7553 53.4359C24.7352 53.475 24.7093 53.5098 24.6983 53.5522C24.6158 53.8933 24.8214 54.2381 25.1616 54.3244C25.5052 54.4089 25.8491 54.2045 25.9349 53.8612C26.0196 53.5182 25.8111 53.1737 25.4723 53.0885Z" fill="#AF8B18"/>
<path d="M27.289 52.3705C27.7939 51.6334 27.6326 51.0736 27.6326 51.0736C27.2226 49.634 26.6998 48.015 26.1569 46.1209L26.0134 45.6551C25.8754 45.1227 26.5512 44.9545 26.6757 45.3684C26.8374 45.9169 27.0565 46.5685 27.2171 47.0478C27.5143 47.9422 27.4445 48.9093 28.2466 49.0852C29.0476 49.2607 29.1079 48.2281 29.1079 48.2281C29.7519 48.5364 30.2564 48.7492 30.8351 48.6984C31.8719 48.611 33.1318 47.3539 33.1318 47.3539C32.1147 48.0395 30.4098 47.9338 29.4229 47.555C29.4229 47.555 29.4153 47.5521 29.4134 47.5499C29.4061 47.5477 29.3956 47.544 29.389 47.5403C29.3718 47.536 29.3459 47.5268 29.3225 47.5148C29.3225 47.5148 29.3171 47.5148 29.313 47.5115C29.106 47.4255 28.6395 47.1813 28.2466 46.6076C27.9506 46.1831 27.7125 45.7527 27.4968 44.9523C27.0831 43.504 24.7276 44.2155 25.2128 45.9633C25.4676 46.8906 26.4891 50.2216 26.806 51.3098C26.806 51.3098 26.725 52.4426 25.4483 51.7632C24.6637 51.3482 24.7502 50.6399 24.8043 50.2158C24.8638 49.7905 25.4673 49.2432 25.4673 49.2432C25.4673 49.2432 24.8671 48.9576 24.4348 50.1672C24.1752 50.8846 23.0369 51.1134 22.5312 51.1818C22.9664 51.1592 23.912 51.2396 24.6674 52.1716C25.4198 53.055 26.7852 53.1044 27.289 52.3705Z" fill="#AF8B18"/>
<path d="M22.5329 51.1816C22.3796 51.1882 22.2891 51.2065 22.2891 51.2065C22.2891 51.2065 22.3822 51.2007 22.5329 51.1816Z" fill="#AF8B18"/>
<path d="M30.2837 49.4678C30.1902 49.9293 30.0471 50.7418 29.1654 50.5249C28.18 50.3176 28.3294 50.9999 28.4053 51.1187C28.4458 51.1798 28.5612 51.3422 28.7945 51.4178C29.149 51.8946 29.1654 52.7137 28.5714 53.2556C27.8694 53.9053 26.8986 53.113 26.7383 52.8903C26.7307 53.2622 27.5485 54.6052 28.7978 54.1938C29.6389 53.9108 30.2373 52.3649 29.969 51.0836C30.4666 50.4964 30.3859 48.9943 30.2837 49.4678Z" fill="#AF8B18"/>
<path d="M56.9023 46.7709C57.6482 47.0824 59.072 45.739 58.5934 46.0012C58.1819 46.2304 57.4711 46.6495 57.0644 45.841C56.5883 44.9745 56.1772 45.4904 56.1221 45.6399C55.8428 45.3514 55.5007 45.0114 55.0236 44.9543C55.7464 46.4213 58.3469 51.9283 58.9829 53.2C59.2407 53.0746 59.4959 52.9466 59.754 52.8234C59.0636 51.419 57.6354 48.3684 56.8464 46.7442C56.8691 46.7511 56.8833 46.7621 56.9023 46.7709Z" fill="#AF8B18"/>
<path d="M17.7621 43.4303C17.596 43.5155 17.3901 43.4497 17.3014 43.2756C17.212 43.1049 17.2883 42.8987 17.4573 42.812C17.63 42.7283 17.8355 42.7963 17.9195 42.9689C18.006 43.1414 17.9366 43.3451 17.7621 43.4303ZM27.5482 39.5025L29.5076 40.1596L29.8063 39.2605L27.4555 38.474L19.3827 42.5074C19.3827 42.5074 19.056 42.6723 18.9457 42.4504C18.8326 42.2244 19.1633 42.0639 19.1633 42.0639L27.2346 38.0297L28.025 35.6735L27.1247 35.374L26.469 37.3394L18.0856 41.5268L18.0487 41.4997C18.1619 41.6807 18.2258 41.952 18.1159 42.1133C17.722 41.8134 17.2853 41.8796 17.1251 41.959C15.8363 42.601 16.9403 44.8622 18.2397 44.215C18.4061 44.1338 18.696 43.9188 18.7 43.283C18.9063 43.3272 19.1137 43.5714 19.1699 43.751L19.1662 43.6903L27.5482 39.5025Z" fill="#AF8B18"/>
<path d="M17.6991 18.1638L17.7338 18.1766C17.9634 18.2921 18.2964 18.3967 18.3307 18.4187C16.3001 24.2869 15.9032 29.7679 17.1646 35.208C17.1646 35.208 17.7557 36.9953 17.2066 37.814C14.9398 31.9435 15.3297 24.9593 17.6991 18.1638ZM17.9284 40.5081C18.1569 40.4017 18.261 40.3545 18.5286 40.2309C18.5286 40.2309 18.76 40.1293 19.0123 40.0112C19.062 40.0437 19.1069 40.0733 19.1678 40.1026C19.8801 40.473 21.408 39.2528 20.91 39.4755C20.4821 39.6697 19.7414 40.0291 19.3997 39.1896C18.9867 38.2656 18.5282 38.7888 18.4764 38.9215C18.457 38.9691 18.4161 39.0799 18.4223 39.2225C18.2044 39.459 17.6305 39.7007 16.7882 40.089C16.3811 40.2788 15.7324 39.3943 16.7535 38.9215C16.7616 38.9161 16.7663 38.9098 16.7747 38.9069C16.7773 38.912 16.7787 38.9182 16.7842 38.9237C19.1459 38.4016 17.9181 35.0768 17.9181 35.0768C16.7601 30.1025 17.0215 24.6771 18.9101 19.2114L18.8093 18.7287C18.8093 18.7287 19.1204 18.9796 19.3664 19.0761C19.8206 19.7182 21.6132 19.6326 21.1002 19.524C20.6398 19.4286 19.8235 19.2823 20.044 18.4037C20.2514 17.4135 19.5687 17.5671 19.45 17.6427C19.4062 17.6694 19.3212 17.7309 19.2463 17.8387C19.005 17.9338 18.5486 17.6731 17.6027 17.2C16.8875 16.8427 17.2106 15.9988 18.0196 16.205L18.0992 16.2387L18.0916 16.2613L18.1135 16.2434L18.4179 16.3787L26.5104 20.4206L27.1705 22.3863L28.0635 22.089L27.2793 19.7299L19.2032 15.6964L18.3592 15.3776V15.3787C18.3373 15.3692 18.3205 15.356 18.2967 15.3483C18.2672 15.3315 18.2062 15.3008 18.2062 15.3008C18.2062 15.3037 18.2047 15.3048 18.2047 15.3048C17.7714 15.1476 17.2413 15.1801 16.9364 15.3629C15.8985 15.993 15.8182 17.3656 16.9532 17.9506C16.9631 17.9532 16.9532 17.9601 16.9335 18.0095C14.5466 25.0189 14.0618 31.4978 16.4501 38.0103L16.468 38.0242C16.468 38.0242 16.4757 38.0619 16.4929 38.1211L15.9766 38.3266C15.54 38.5468 15.187 39.0203 15.1559 39.3965C15.0665 40.5746 16.0128 41.3915 17.1453 40.8664L17.9284 40.5081Z" fill="#AF8B18"/>
<path d="M20.2402 38.1436C19.8905 38.1436 19.6094 38.4273 19.6094 38.7801C19.6094 39.1312 19.8909 39.4175 20.2402 39.4175C20.5951 39.4175 20.8813 39.1312 20.8813 38.7801C20.8817 38.4277 20.5951 38.1436 20.2402 38.1436Z" fill="#AF8B18"/>
<path d="M18.6222 11.0678C18.9596 11.1534 19.3049 10.9431 19.3904 10.6031C19.4528 10.3588 19.3557 10.1186 19.1801 9.965C19.2177 9.98365 19.2535 10.0089 19.2955 10.0206C19.6386 10.1043 19.9822 9.89736 20.0665 9.55584C20.149 9.21579 19.9387 8.86989 19.605 8.78433C19.2626 8.70023 18.9161 8.90755 18.8318 9.2487C18.7679 9.49149 18.8621 9.73538 19.0454 9.88895C19.0045 9.8692 18.9734 9.84251 18.9304 9.83337C18.5846 9.74708 18.2404 9.9544 18.156 10.2955C18.0702 10.6371 18.2783 10.9833 18.6222 11.0678Z" fill="#AF8B18"/>
<path d="M19.5878 11.8791C19.2194 11.8655 17.8763 12.6864 18.2888 13.9347C18.5696 14.7808 20.1139 15.3772 21.395 15.111C21.9773 15.6087 23.4788 15.5282 23.0068 15.4273C22.5457 15.3315 21.7359 15.1863 21.9502 14.3073C22.1598 13.3175 21.4738 13.4715 21.3577 13.5457C21.2953 13.5859 21.1332 13.7015 21.0613 13.9329C20.5834 14.2927 19.7645 14.3073 19.2264 13.7164C18.5729 13.0064 19.3658 12.0403 19.5878 11.8791Z" fill="#AF8B18"/>
<path d="M21.2937 7.66442C21.2872 7.51341 21.2656 7.4209 21.2656 7.4209C21.2656 7.4209 21.2704 7.5167 21.2937 7.66442Z" fill="#AF8B18"/>
<path d="M20.1078 12.4312C20.8468 12.9351 21.4028 12.7728 21.4028 12.7728C22.8412 12.3629 24.4567 11.8385 26.3493 11.3007L26.8115 11.1511C27.3413 11.0151 27.515 11.6897 27.1025 11.8137C26.5508 11.9789 25.9021 12.195 25.426 12.3599C24.5297 12.6565 23.5626 12.5852 23.3903 13.39C23.2162 14.1929 24.2453 14.2536 24.2453 14.2536C23.9372 14.8961 23.7273 15.4061 23.7744 15.982C23.8594 17.0227 25.1194 18.2823 25.1194 18.2823C24.4209 17.2457 24.5422 15.4961 24.9339 14.5165C24.9405 14.5092 24.9405 14.4993 24.9463 14.4913C24.9532 14.4734 24.9591 14.4609 24.9667 14.4423C25.0569 14.2288 25.2993 13.7772 25.8638 13.39C26.2854 13.0938 26.7151 12.8536 27.515 12.6378C28.96 12.2257 28.2514 9.8633 26.5059 10.3503C25.5837 10.6034 22.2538 11.6272 21.1691 11.9475C21.1691 11.9475 20.0345 11.8663 20.7172 10.5884C21.1294 9.80444 21.8336 9.88853 22.26 9.94265C22.6872 9.99859 23.2282 10.6034 23.2282 10.6034C23.2282 10.6034 23.5174 10.0037 22.3067 9.57225C21.5923 9.31447 21.3626 8.17182 21.2955 7.66504C21.3141 8.10418 21.2385 9.04755 20.3057 9.80992C19.4248 10.5547 19.374 11.9281 20.1078 12.4312Z" fill="#AF8B18"/>
<path d="M29.1915 2.42469C29.3584 2.34096 29.5679 2.40897 29.6505 2.58046C29.7388 2.75048 29.6662 2.96073 29.4978 3.04556C29.3248 3.12929 29.1185 3.05982 29.0305 2.88906C28.9488 2.71721 29.0156 2.50989 29.1915 2.42469ZM29.182 3.82365C29.1375 4.03061 28.8962 4.23793 28.7133 4.29461L28.7728 4.29022L32.9559 12.6862L32.3032 14.6523L33.1969 14.9517L33.9855 12.5926L29.9568 4.50887C29.9568 4.50887 29.7899 4.18126 30.0122 4.06937C30.2412 3.95821 30.3981 4.28766 30.3981 4.28766L34.429 12.3754L36.7798 13.1626L37.081 12.2628L35.119 11.605L30.9366 3.20864L30.9658 3.1739C30.7818 3.28615 30.5117 3.34758 30.3485 3.24228C30.6486 2.84665 30.5836 2.40897 30.5066 2.24552C29.8633 0.95662 27.6063 2.06343 28.2514 3.3655C28.3365 3.52967 28.5453 3.82073 29.182 3.82365Z" fill="#AF8B18"/>
<path d="M54.263 2.82274L54.2481 2.85638C54.1378 3.08527 54.0308 3.42057 54.0075 3.45384C48.1457 1.41793 42.6804 1.02193 37.2457 2.28889C37.2457 2.28889 35.4608 2.87795 34.6431 2.32985C40.5016 0.0591832 47.4801 0.447865 54.263 2.82274ZM31.9476 3.05017C32.0583 3.28162 32.1035 3.38218 32.2284 3.65276C32.2284 3.65276 32.3277 3.88384 32.4489 4.1398C32.4182 4.18952 32.385 4.23121 32.354 4.28788C31.9874 5.00857 33.2032 6.53624 32.9837 6.04006C32.7877 5.60823 32.4288 4.86707 33.2681 4.52702C34.1889 4.11493 33.6697 3.64873 33.5354 3.60083C33.4861 3.58109 33.3788 3.54123 33.2386 3.54672C33.0013 3.32879 32.7596 2.75144 32.3722 1.91009C32.1798 1.50276 33.0663 0.849711 33.5354 1.87279C33.5438 1.88376 33.5485 1.88815 33.5511 1.89582C33.546 1.89985 33.5387 1.89985 33.5314 1.90533C34.0538 4.27253 37.3732 3.0403 37.3732 3.0403C42.3412 1.88303 47.7572 2.14483 53.2127 4.03815L53.7026 3.93613C53.7026 3.93613 53.4482 4.2473 53.3481 4.49338C52.7132 4.9519 52.7928 6.74174 52.9035 6.22727C53.0002 5.76436 53.1448 4.95409 54.0213 5.17092C55.0082 5.3797 54.8567 4.69668 54.7814 4.57711C54.7555 4.53652 54.6949 4.44804 54.5858 4.37271C54.4908 4.13358 54.7555 3.67469 55.2221 2.72584C55.5795 2.00808 56.4225 2.33168 56.2155 3.14487L56.1826 3.22349L56.1604 3.21581L56.1757 3.23702L56.0432 3.54306L52.0075 11.6472L50.0478 12.305L50.346 13.2031L52.695 12.4158L56.7273 4.32993L57.0457 3.48456C57.0537 3.46481 57.0647 3.44397 57.072 3.42094C57.091 3.38876 57.1205 3.32952 57.1205 3.32952L57.114 3.32514C57.2731 2.89477 57.2414 2.35946 57.0566 2.05927C56.4291 1.01791 55.0585 0.939294 54.4766 2.07499C54.4686 2.08413 54.4646 2.0706 54.4153 2.05671C47.417 -0.338274 40.9481 -0.821659 34.4452 1.56967L34.4317 1.58759C34.4317 1.58759 34.3937 1.59709 34.3331 1.61501L34.1297 1.09762C33.9107 0.658112 33.4375 0.305263 33.0626 0.276011C31.8874 0.184965 31.0718 1.13418 31.5953 2.26915L31.9476 3.05017Z" fill="#AF8B18"/>
<path d="M33.043 5.3717C33.043 5.72235 33.3248 6.01048 33.6757 6.01048C34.0265 6.01048 34.3171 5.72235 34.3171 5.3717C34.3171 5.01848 34.0269 4.73364 33.676 4.73364C33.3252 4.73364 33.043 5.01848 33.043 5.3717Z" fill="#AF8B18"/>
<path d="M61.8082 4.51681C62.0521 4.57751 62.2953 4.48427 62.4471 4.30547C62.43 4.3435 62.4041 4.38043 62.3916 4.42211C62.3077 4.76326 62.514 5.10916 62.8579 5.19326C63.1967 5.27845 63.5417 5.07113 63.6264 4.73072C63.7143 4.38774 63.5077 4.0433 63.1634 3.95701C62.9203 3.89594 62.6753 3.98845 62.5256 4.17018C62.5428 4.12996 62.568 4.09742 62.5789 4.05354C62.6662 3.71202 62.4577 3.36576 62.1153 3.28166C61.7801 3.19427 61.4333 3.40232 61.3482 3.7453C61.2603 4.08791 61.4694 4.43308 61.8082 4.51681Z" fill="#AF8B18"/>
<path d="M64.742 6.42476C64.8982 6.41562 64.9858 6.39771 64.9858 6.39771C64.9858 6.39771 64.8902 6.40319 64.742 6.42476Z" fill="#AF8B18"/>
<path d="M59.9883 5.23811C59.4823 5.97196 59.6466 6.53067 59.6466 6.53067C60.0591 7.97314 60.5783 9.59003 61.1179 11.4863L61.2661 11.9517C61.4023 12.4841 60.7316 12.6523 60.6038 12.2377C60.4425 11.6896 60.2212 11.038 60.0591 10.5601C59.7642 9.66316 59.8361 8.69639 59.0314 8.52125C58.2326 8.34574 58.1687 9.3754 58.1687 9.3754C57.5291 9.07045 57.0184 8.85618 56.4426 8.90737C55.404 8.99586 54.1484 10.2522 54.1484 10.2522C55.1648 9.56663 56.861 9.67413 57.8566 10.0526C57.8566 10.0526 57.8621 10.0544 57.8661 10.057C57.8748 10.0599 57.8858 10.0621 57.8884 10.0635C57.9081 10.0705 57.9325 10.0804 57.9643 10.0895C57.9643 10.0921 57.9643 10.0928 57.9687 10.0957C58.1742 10.182 58.6368 10.4255 59.0314 10.9981C59.3261 11.4227 59.5648 11.8512 59.7828 12.6552C60.195 14.1014 62.5545 13.3906 62.0675 11.6428C61.8105 10.7195 60.793 7.38409 60.4753 6.29775C60.4753 6.29775 60.5538 5.16352 61.8276 5.84362C62.6144 6.2579 62.5293 6.96652 62.4731 7.3914C62.4165 7.81848 61.8108 8.36292 61.8108 8.36292C61.8108 8.36292 62.4099 8.64996 62.8455 7.4404C63.1018 6.72263 64.2441 6.49337 64.745 6.42573C64.3094 6.44511 63.3675 6.3654 62.6071 5.4341C61.8601 4.55069 60.4907 4.50023 59.9883 5.23811Z" fill="#AF8B18"/>
<path d="M56.9923 8.13694C57.0912 7.67549 57.2303 6.86412 58.1113 7.08241C59.0988 7.28864 58.9466 6.60597 58.8754 6.4875C58.8349 6.42571 58.7144 6.26336 58.4866 6.18914C58.1291 5.7116 58.1116 4.89 58.6998 4.35103C59.4088 3.69762 60.3759 4.49327 60.5365 4.71522C60.5504 4.34335 59.7293 2.9996 58.4818 3.41315C57.6385 3.69397 57.0452 5.23882 57.3103 6.52151C56.8123 7.10874 56.8933 8.61483 56.9923 8.13694Z" fill="#AF8B18"/>
<path d="M30.3722 10.8324C29.627 10.5245 28.2083 11.8668 28.6811 11.6042C29.094 11.3753 29.8016 10.9552 30.2101 11.764C30.6909 12.6306 31.0969 12.1129 31.1557 11.9651C31.4309 12.2569 31.7748 12.5959 32.2564 12.6529C31.531 11.1826 28.9308 5.67748 28.2949 4.4043C28.0382 4.53227 27.7801 4.65952 27.5234 4.78311C28.2109 6.18755 29.6384 9.23668 30.428 10.8609C30.4094 10.8503 30.3955 10.8426 30.3722 10.8324Z" fill="#AF8B18"/>
<path d="M69.514 14.1737C69.6866 14.0889 69.89 14.1562 69.9791 14.3306C70.0641 14.5014 69.9926 14.7076 69.8195 14.7939C69.6516 14.8769 69.4428 14.8089 69.3592 14.6378C69.2734 14.4641 69.3431 14.2582 69.514 14.1737ZM59.7315 18.1037L57.7696 17.4459L57.4688 18.345L59.8221 19.1326L67.8974 15.0992C67.8974 15.0992 68.2234 14.9332 68.3347 15.1548C68.4468 15.3811 68.1157 15.5427 68.1157 15.5427L60.0426 19.5762L59.2566 21.9324L60.1558 22.2322L60.8104 20.2636L69.1916 16.0773L69.2292 16.1055C69.1153 15.9234 69.0558 15.6546 69.1653 15.4912C69.5574 15.7895 69.993 15.727 70.1576 15.6458C71.446 15.0038 70.3361 12.7455 69.0364 13.3898C68.8732 13.4724 68.5834 13.686 68.5808 14.3226C68.3742 14.2809 68.1635 14.0355 68.1098 13.8531L68.1164 13.9141L59.7315 18.1037Z" fill="#AF8B18"/>
<path d="M69.5763 39.4408L69.5463 39.4272C69.3142 39.3135 68.9819 39.2089 68.9454 39.1863C70.9819 33.3195 71.3776 27.8359 70.1108 22.3987C70.1108 22.3987 69.5244 20.6107 70.0713 19.7913C72.3403 25.6614 71.9504 32.6456 69.5763 39.4408ZM70.3254 39.6536C70.317 39.6503 70.3269 39.6444 70.3473 39.5925C72.7357 32.5856 73.2169 26.1075 70.8311 19.5949L70.8132 19.5803C70.8132 19.5803 70.803 19.5401 70.7847 19.4827L71.3039 19.2765C71.7398 19.0585 72.0939 18.585 72.1198 18.2088C72.2133 17.0288 71.2641 16.2145 70.1341 16.74L69.3514 17.0972C69.1203 17.2025 69.021 17.2515 68.7505 17.3762C68.7505 17.3762 68.5201 17.4767 68.2638 17.593C68.2193 17.5627 68.17 17.5331 68.1149 17.5027C67.3975 17.1301 65.8736 18.3503 66.3646 18.1302C66.7995 17.936 67.5366 17.5755 67.8768 18.4165C68.2905 19.3393 68.7519 18.8154 68.8067 18.683C68.8239 18.634 68.864 18.5247 68.8563 18.3825C69.0765 18.1451 69.6511 17.9053 70.489 17.5166C70.8975 17.3261 71.5496 18.2106 70.5303 18.6823C70.5189 18.687 70.5142 18.694 70.5062 18.6973C70.5036 18.6933 70.5036 18.6852 70.4963 18.6775C68.132 19.2011 69.3623 22.526 69.3623 22.526C70.5193 27.5035 70.2568 32.9282 68.3671 38.3935L68.4686 38.8777C68.4686 38.8777 68.1583 38.6272 67.9111 38.527C67.4541 37.8871 65.6677 37.9734 66.1832 38.0806C66.6407 38.1764 67.4519 38.3204 67.2365 39.2005C67.0287 40.1892 67.7103 40.0375 67.8286 39.9607C67.8699 39.9336 67.9568 39.8733 68.0331 39.7669C68.2708 39.6733 68.7333 39.9326 69.6778 40.4039C70.3933 40.7618 70.0673 41.6061 69.2587 41.4003L69.1794 41.3641L69.186 41.3418L69.1663 41.3589L68.8618 41.2251V41.2262L60.769 37.1836L60.1093 35.2161L59.2148 35.5163L60.002 37.8725L68.0747 41.9078L68.9206 42.2274V42.2252C68.9407 42.2354 68.9597 42.2478 68.9801 42.2566C69.0148 42.272 69.0736 42.303 69.0736 42.303C69.0736 42.2986 69.0769 42.2983 69.0769 42.2983C69.5091 42.4573 70.0414 42.4259 70.343 42.2405C71.3813 41.6105 71.4619 40.239 70.3254 39.6536Z" fill="#AF8B18"/>
<path d="M67.0304 19.4623C67.3875 19.4623 67.6719 19.1782 67.6719 18.8224C67.6719 18.4725 67.3875 18.1865 67.0304 18.1865C66.6825 18.1865 66.3984 18.4725 66.3984 18.8224C66.3984 19.1782 66.6825 19.4623 67.0304 19.4623Z" fill="#AF8B18"/>
<path d="M68.657 46.5372C68.3164 46.4531 67.9703 46.6615 67.8859 47.0016C67.8242 47.2447 67.9181 47.4893 68.0984 47.6407C68.0612 47.6195 68.0247 47.5965 67.9812 47.5851C67.6406 47.5007 67.2967 47.7084 67.2098 48.0495C67.1262 48.3918 67.3354 48.7358 67.6775 48.8221C68.0185 48.9073 68.3598 48.7007 68.446 48.357C68.5051 48.1135 68.4124 47.8711 68.2353 47.7201C68.2715 47.7369 68.3069 47.7654 68.3496 47.7734C68.6902 47.8597 69.0341 47.6506 69.1196 47.3113C69.2039 46.969 68.9987 46.6217 68.657 46.5372Z" fill="#AF8B18"/>
<path d="M67.6911 45.7258C68.0617 45.7379 69.403 44.9181 68.9915 43.6716C68.7111 42.8241 67.1668 42.2273 65.8821 42.492C65.2965 41.9962 63.7986 42.0785 64.2761 42.1772C64.7317 42.2752 65.5407 42.4175 65.3272 43.2968C65.1194 44.2866 65.8018 44.1349 65.9219 44.0588C65.984 44.019 66.1442 43.9038 66.2183 43.6716C66.6948 43.314 67.5144 43.2968 68.0533 43.8884C68.7027 44.5974 67.9087 45.5664 67.6911 45.7258Z" fill="#AF8B18"/>
<path d="M65.9844 49.9385C65.9902 50.0899 66.0103 50.1846 66.0103 50.1846C66.0103 50.1846 66.0026 50.0888 65.9844 49.9385Z" fill="#AF8B18"/>
<path d="M67.168 45.1744C66.436 44.6698 65.8764 44.8322 65.8764 44.8322C64.4383 45.2425 62.8224 45.7668 60.9335 46.3068L60.4698 46.4542C59.9332 46.5921 59.7656 45.9134 60.1822 45.7909C60.729 45.6278 61.3745 45.4103 61.8477 45.2479H61.855C62.7469 44.9492 63.7187 45.0205 63.891 44.2175C64.0641 43.4131 63.0346 43.3532 63.0346 43.3532C63.3427 42.7096 63.5573 42.1992 63.5077 41.6266C63.4164 40.5837 62.1656 39.3252 62.1656 39.3252C62.8608 40.3589 62.7377 42.1096 62.3424 43.0888C62.3405 43.0968 62.3394 43.1045 62.334 43.1151C62.3263 43.1316 62.3212 43.1455 62.3139 43.1634C62.2252 43.3791 61.9736 43.8285 61.4139 44.2175C60.9926 44.5119 60.564 44.751 59.7619 44.9671C58.3202 45.3807 59.0289 47.7435 60.7725 47.2579C61.6932 47.0012 65.025 45.9778 66.1067 45.66C66.1067 45.66 67.2403 45.7401 66.566 47.018C66.1491 47.8045 65.4415 47.7193 65.0191 47.6623C64.5935 47.6056 64.0502 47.0012 64.0502 47.0012C64.0502 47.0012 63.7625 47.6001 64.9702 48.0349C65.6854 48.2919 65.9151 49.4331 65.9852 49.9388C65.9629 49.5008 66.0436 48.5589 66.9767 47.7976C67.8573 47.0484 67.904 45.6776 67.168 45.1744Z" fill="#AF8B18"/>
<path d="M61.5808 15.5187C61.8926 14.7706 60.5513 13.3489 60.8127 13.8268C61.0376 14.2385 61.4625 14.9475 60.6513 15.3567C59.7919 15.8346 60.3016 16.2441 60.4509 16.2982C60.1636 16.5809 59.8215 16.9246 59.7656 17.4021C61.2278 16.6785 66.7278 14.0718 68.0016 13.4352C67.873 13.1782 67.7478 12.9226 67.6233 12.6641C66.2192 13.3529 63.1744 14.7844 61.5542 15.5742C61.5622 15.5541 61.5699 15.5402 61.5808 15.5187Z" fill="#AF8B18"/>
<path d="M25.6992 42.0861C25.3885 42.8335 26.7287 44.2569 26.4673 43.779C26.241 43.3662 25.8207 42.6572 26.625 42.2481C27.4877 41.772 26.9777 41.3614 26.8276 41.3047C27.1186 41.0235 27.4563 40.6783 27.5155 40.2012C26.0467 40.927 20.5486 43.5333 19.2773 44.1673C19.4051 44.4273 19.5329 44.6818 19.6574 44.9418C21.0586 44.2525 24.103 42.8207 25.7266 42.0287C25.7163 42.0517 25.7072 42.0641 25.6992 42.0861Z" fill="#AF8B18"/>
<path d="M37.4863 38.0901C37.4863 38.0901 37.4848 38.1409 37.4611 38.2155C37.4958 38.1369 37.4863 38.0901 37.4863 38.0901Z" fill="#AF8B18"/>
<path d="M34.3589 22.6382C34.3589 22.6382 34.314 22.6363 34.2344 22.6191C34.3169 22.6513 34.3589 22.6382 34.3589 22.6382Z" fill="#AF8B18"/>
<path d="M49.7896 19.5127C49.7896 19.5127 49.7972 19.4623 49.8144 19.3877C49.7834 19.4681 49.7896 19.5127 49.7896 19.5127Z" fill="#AF8B18"/>
<path d="M52.9141 34.9639C52.9141 34.9639 52.9641 34.968 53.0349 34.9866C52.956 34.9555 52.9141 34.9639 52.9141 34.9639Z" fill="#AF8B18"/>
<path d="M34.3602 23.2702L30.6637 21.4193L29.6094 21.7703L29.9117 22.6709L30.5725 22.45L33.9199 24.102C33.223 25.5226 32.825 27.1153 32.825 28.8024C32.825 30.3476 33.1576 31.8146 33.7396 33.1445L34.599 32.7115C34.0787 31.5104 33.7896 30.19 33.7896 28.8024C33.7896 25.9895 34.9776 23.4552 36.8713 21.6562L36.4153 20.7666C35.6117 21.4913 34.9188 22.3374 34.3602 23.2702Z" fill="#AF8B18"/>
<path d="M39.3047 18.8881L39.7406 19.7467C40.9421 19.2275 42.2586 18.9379 43.6448 18.9379C46.4552 18.9379 48.9885 20.1284 50.7833 22.0272L51.6796 21.5819C50.9582 20.7723 50.1126 20.0805 49.1842 19.5174L51.0144 15.8017L50.6624 14.749L49.7643 15.0503L49.9845 15.711L48.3135 19.0512C46.9006 18.3664 45.3216 17.9718 43.6452 17.9718C42.1016 17.9718 40.6383 18.3024 39.3047 18.8881Z" fill="#AF8B18"/>
<path d="M52.9011 34.3656L56.6202 36.1854L57.6702 35.8326L57.3701 34.936L56.706 35.1539L53.3801 33.4723C54.061 32.0565 54.452 30.4777 54.452 28.8027C54.452 27.2647 54.127 25.8073 53.548 24.4814L52.6872 24.9107C53.2005 26.106 53.4867 27.4201 53.4867 28.803C53.4867 31.6211 52.2965 34.1597 50.3984 35.9598L50.8413 36.8608C51.6485 36.139 52.34 35.2943 52.9011 34.3656Z" fill="#AF8B18"/>
<path d="M47.9483 38.734L47.5251 37.8689C46.3331 38.3834 45.0236 38.6679 43.645 38.6679C40.8412 38.6679 38.3086 37.4813 36.512 35.5898L35.6172 36.0407C36.355 36.855 37.2093 37.5588 38.1542 38.1223L36.2714 41.8011L36.6208 42.8571L37.5178 42.5547L37.2969 41.8929L38.9982 38.5666C40.406 39.2456 41.9842 39.6372 43.6454 39.6372C45.1747 39.6372 46.627 39.3114 47.9483 38.734Z" fill="#AF8B18"/>
<path d="M50.3196 22.2569C48.6249 20.5175 46.2548 19.4326 43.6404 19.4326C42.34 19.4326 41.0939 19.7039 39.9688 20.1884L40.4087 21.0506C41.4024 20.6319 42.4951 20.3979 43.6404 20.3979C45.8743 20.3979 47.8998 21.2824 49.4025 22.7121L50.3196 22.2569Z" fill="#AF8B18"/>
<path d="M34.2852 28.8025C34.2852 30.1101 34.5539 31.3544 35.0409 32.4875L35.9021 32.0513C35.483 31.0527 35.249 29.9547 35.249 28.8025C35.249 26.5633 36.131 24.5303 37.564 23.0213L37.104 22.1123C35.3643 23.8162 34.2852 26.1834 34.2852 28.8025Z" fill="#AF8B18"/>
<path d="M36.9688 35.3583C38.6697 37.0904 41.0296 38.1712 43.6407 38.1712C44.9418 38.1712 46.1794 37.9047 47.2992 37.4231L46.8731 36.5562C45.8797 36.9734 44.7856 37.2048 43.6407 37.2048C41.4111 37.2048 39.386 36.324 37.8811 34.8965L36.9688 35.3583Z" fill="#AF8B18"/>
<path d="M52.9972 28.8023C52.9972 27.501 52.7259 26.2596 52.247 25.1309L51.3832 25.5612C51.7997 26.5602 52.0305 27.6535 52.0305 28.8023C52.0305 31.039 51.1506 33.0698 49.7188 34.5762L50.1729 35.4969C51.9129 33.7938 52.9972 31.4244 52.9972 28.8023Z" fill="#AF8B18"/>
<path d="M45.0155 29.5715L45.0145 29.5686C44.7563 30.0326 44.2744 30.3504 43.7129 30.3767L43.7038 30.3811C43.6852 30.3811 43.6644 30.3873 43.6432 30.3873C43.6052 30.3873 43.5713 30.3767 43.534 30.3734C43.453 30.3697 43.3705 30.3595 43.2956 30.3441C43.2668 30.3383 43.2442 30.3244 43.2164 30.3174C43.123 30.294 43.0339 30.2604 42.9484 30.2184C42.9484 30.2184 42.9397 30.214 42.9368 30.2118C42.4191 29.9522 42.0606 29.4212 42.0606 28.8026C42.0606 28.7722 42.0697 28.7393 42.0704 28.709L42.0697 28.7039C42.0704 28.6925 42.0722 28.6793 42.0755 28.6673C42.0883 28.5751 42.0971 28.4856 42.1237 28.396C42.1252 28.3781 42.1318 28.3616 42.1394 28.3426C42.1672 28.2581 42.1949 28.1737 42.234 28.0958C42.2376 28.0881 42.2376 28.0837 42.2431 28.0775C42.4983 27.593 42.986 27.2559 43.5665 27.2281L43.5713 27.2255C43.5961 27.2244 43.6224 27.2171 43.6432 27.2171C43.6881 27.2171 43.7378 27.2292 43.7816 27.2343C43.8509 27.2413 43.9192 27.2449 43.9827 27.2595C44.0185 27.2694 44.0514 27.2811 44.0842 27.2917C44.1667 27.3144 44.2489 27.3469 44.3241 27.3831C44.3299 27.3857 44.3376 27.3868 44.3471 27.3926L44.3442 27.3934C44.6519 27.5484 44.9031 27.8014 45.0575 28.1141C45.0601 28.1177 45.0637 28.1239 45.0637 28.1298C45.1013 28.2018 45.128 28.283 45.1525 28.3642C45.1532 28.3824 45.1645 28.4033 45.1696 28.4238C45.1897 28.5064 45.2006 28.5942 45.2101 28.6826C45.2101 28.6965 45.2131 28.7108 45.2163 28.724L45.2131 28.7291C45.2131 28.7532 45.2193 28.7759 45.2193 28.8026V28.8037L45.2222 28.8088C45.2222 28.8296 45.2163 28.8465 45.2134 28.8655C45.2105 28.9737 45.1952 29.0801 45.17 29.1799C45.1601 29.2041 45.1528 29.23 45.1433 29.2541C45.1159 29.3584 45.0747 29.4578 45.0236 29.5525C45.0192 29.5565 45.0192 29.5642 45.0155 29.5715ZM56.6625 21.2648L45.2182 26.9553C45.074 26.8339 44.9177 26.7279 44.7468 26.6383L56.4412 20.8227L56.7975 19.7671L55.8954 19.4691L55.676 20.1316L43.1544 26.4123C42.9565 26.4504 42.7717 26.5217 42.5943 26.608L37.1454 15.6711L37.3641 15.0082L36.4667 14.7051L36.1141 15.7596L41.8108 27.2076C41.701 27.3352 41.6049 27.4724 41.5202 27.6197L35.6709 15.9819L34.6216 15.6305L34.3215 16.5278L34.9787 16.7494L41.2453 29.1814C41.2811 29.4286 41.3589 29.6582 41.4662 29.8728L30.5261 35.3089L29.8682 35.0884L29.5703 35.9883L30.6192 36.3385L42.0613 30.6458C42.207 30.7694 42.3636 30.8762 42.5377 30.9624L30.8397 36.7824L30.4863 37.8362L31.3888 38.1364L31.6046 37.4757L44.4124 31.1054C44.496 31.078 44.5804 31.0484 44.66 31.0107L50.1402 41.9344L49.9175 42.5969L50.8193 42.8979L51.1701 41.8459L45.4427 30.4271C45.577 30.2787 45.6888 30.1156 45.7859 29.9357L51.613 41.6229L52.6648 41.9753L52.9598 41.0762L52.0894 40.432L46.0049 28.2278C45.9578 28.0548 45.8998 27.8899 45.8202 27.7331L56.7548 22.293L57.4164 22.516L57.7135 21.614L56.6625 21.2648Z" fill="#AF8B18"/>
<path d="M32.0932 46.6148C32.5156 46.2485 32.9832 45.3398 33.4834 43.8944C33.9905 42.4446 34.6648 41.0058 35.6651 40.9824C35.2314 40.9916 34.2607 41.1119 33.7777 41.5265C33.1022 42.113 32.8832 42.8681 33.1333 43.7873C33.1179 43.7061 33.0679 43.622 32.9935 43.5365C32.5053 42.9697 31.9705 43.0081 31.4459 43.2662C31.0169 43.4783 30.807 43.9727 30.8789 44.403C31.4218 43.8849 32.1129 43.8027 32.4309 44.172C32.9916 44.8235 32.5736 46.617 31.4722 46.862C30.3776 47.1074 30.1743 46.345 30.1009 46.1954C30.2071 46.2817 30.3404 46.3391 30.4868 46.3391C30.8398 46.3391 31.1257 46.0558 31.1257 45.7018C31.1257 45.3515 30.8398 45.0641 30.4868 45.0641C30.4572 45.0641 30.428 45.0769 30.3995 45.0831H30.3981C30.2396 45.1062 30.1009 45.1822 30.0078 45.3003C29.6281 45.6473 29.5876 46.2832 29.9753 46.7351C30.5394 47.3867 31.4145 47.1973 32.0932 46.6148Z" fill="#AF8B18"/>
<path d="M22.9413 50.7404C22.9599 50.7404 22.9804 50.7349 22.9986 50.7342C23.0136 50.7349 23.0216 50.7382 23.038 50.7404C23.0253 50.7404 23.0132 50.7371 22.9986 50.7342C23.9785 50.6665 24.2571 49.5067 23.6777 46.7259C23.2994 44.8919 24.6802 43.6318 24.6802 43.6318C24.6802 43.6318 22.1282 44.4494 23.4415 47.3307C24.1979 48.9981 23.9102 49.8738 23.5324 50.3188C23.5586 50.2515 23.5754 50.1798 23.5754 50.1023C23.5754 49.7513 23.2965 49.4639 22.9417 49.4639C22.5937 49.4639 22.3046 49.7513 22.3046 50.1023C22.3046 50.3316 22.4338 50.5217 22.6116 50.6336C22.4002 50.566 22.1593 50.4665 21.9669 50.3418C21.596 50.0954 21.3977 49.8954 21.2966 49.6354C20.9651 48.7907 21.2827 48.122 22.0384 48.1889C22.3396 48.1922 22.6069 48.3278 22.8391 48.6024C23.0738 47.9143 22.5601 47.3984 22.1038 47.4349C21.8508 47.4536 21.5996 47.5395 21.3462 47.8247C21.5686 47.3099 21.4674 46.2418 21.1626 45.8455C20.8534 45.4528 20.539 45.2268 20.2148 45.1716C20.485 45.5511 20.6026 46.2031 20.5704 47.1256C20.539 48.0499 20.6058 48.7235 20.7723 49.1447C21.056 49.8617 21.6124 50.5038 22.7065 50.6939C22.7828 50.7206 22.8588 50.7404 22.9413 50.7404Z" fill="#AF8B18"/>
<path d="M28.0809 45.376C28.5668 46.9468 30.4835 47.1205 30.4835 47.1205C30.4835 47.1205 29.6084 46.9698 28.9892 46.3391C28.4033 45.7442 28.0346 44.7683 28.4453 43.811C28.5552 43.8951 28.6815 43.9536 28.8312 43.9536C29.182 43.9536 29.4682 43.671 29.4682 43.3174C29.4682 42.9627 29.1824 42.6797 28.8312 42.6797C28.7191 42.6797 28.6227 42.713 28.5325 42.7638L28.5307 42.7572C28.5307 42.7572 27.4395 43.2965 28.0809 45.376Z" fill="#AF8B18"/>
<path d="M32.8531 40.2483C32.5234 41.0253 32.779 41.7456 32.8312 41.9211C32.8144 41.72 32.8688 40.7895 33.6665 40.385C33.8596 40.2882 34.117 40.1894 34.3828 40.0914C34.8965 39.9916 35.6003 39.8135 36.2659 39.4899C37.1706 39.0534 37.3998 38.4698 37.4586 38.2149C37.4002 38.3634 37.1968 38.627 36.4922 38.9422C36.4886 38.9444 36.4838 38.9477 36.4805 38.9499C36.4579 38.9598 36.4236 38.9729 36.3995 38.9832C36.0158 39.1195 35.355 39.2227 34.7968 38.6179C34.5613 38.3144 34.504 38.0281 34.527 37.7838C34.6164 38.027 34.8446 38.2058 35.1224 38.2058C35.4718 38.2058 35.757 37.9206 35.757 37.5666C35.757 37.2153 35.4718 36.9297 35.1224 36.9297C35.0651 36.9297 35.0155 36.948 34.9611 36.9637C34.9801 36.9447 34.991 36.9366 34.991 36.9366C34.9717 36.9447 34.9545 36.9586 34.9344 36.9692C34.8293 37.0021 34.7333 37.0562 34.6595 37.1341C33.5573 37.9056 34.0078 39.0651 34.9987 39.3013C33.9761 39.3857 33.2371 39.3397 32.8531 40.2483Z" fill="#AF8B18"/>
<path d="M21.7391 8.13022C21.8052 9.11051 22.9636 9.3884 25.743 8.80959C27.5721 8.43041 28.8272 9.81219 28.8272 9.81219C28.8272 9.81219 28.0127 7.25925 25.1413 8.57155C23.4736 9.3288 22.6 9.0425 22.1571 8.66625C22.221 8.69258 22.294 8.71013 22.3696 8.71013C22.7248 8.71013 23.0063 8.42785 23.0063 8.07391C23.0063 7.72106 22.7248 7.43476 22.3696 7.43476C22.1414 7.43476 21.9487 7.56237 21.8381 7.74446C21.9071 7.53238 22.0082 7.28777 22.1312 7.0969C22.3769 6.72467 22.5755 6.52832 22.8384 6.4263C23.6766 6.09283 24.3451 6.40985 24.2805 7.16564C24.2779 7.46986 24.1414 7.73788 23.869 7.96604C24.5543 8.20335 25.0691 7.69107 25.0402 7.23438C25.0168 6.98245 24.927 6.72833 24.6456 6.4764C25.1585 6.69871 26.2275 6.59633 26.6181 6.28882C27.0153 5.98168 27.2376 5.66539 27.2939 5.3418C26.916 5.61128 26.2625 5.73231 25.3458 5.6994C24.4199 5.66905 23.7485 5.7356 23.3302 5.90197C22.6084 6.18315 21.9677 6.74039 21.7829 7.84062C21.7537 7.91302 21.7351 7.99127 21.7351 8.07391C21.7344 8.09511 21.7391 8.11266 21.7391 8.13022C21.7391 8.14338 21.7344 8.15545 21.7344 8.16751C21.7344 8.15983 21.7373 8.14411 21.7391 8.13022Z" fill="#AF8B18"/>
<path d="M64.3368 6.86426C64.3175 6.86535 64.2999 6.86901 64.2828 6.86901C64.2678 6.86901 64.2561 6.86535 64.2422 6.86426C64.2506 6.86535 64.2678 6.86901 64.2828 6.86901C63.3014 6.93775 63.0218 8.09685 63.6001 10.8794C63.9801 12.7128 62.6016 13.9746 62.6016 13.9746C62.6016 13.9746 65.1491 13.1567 63.8414 10.275C63.0827 8.60949 63.3697 7.73157 63.7424 7.28512C63.7194 7.35313 63.7005 7.42772 63.7005 7.50304C63.7005 7.85333 63.9819 8.14 64.3372 8.14C64.6906 8.14 64.9746 7.85333 64.9746 7.50304C64.9746 7.27378 64.8479 7.08401 64.665 6.97029C64.876 7.03721 65.1206 7.13703 65.3149 7.26318C65.6847 7.50999 65.8764 7.70853 65.9852 7.97107C66.3115 8.81059 65.999 9.48265 65.2429 9.41574C64.9396 9.41245 64.6705 9.27606 64.4423 8.99927C64.2065 9.68924 64.722 10.2052 65.1783 10.1701C65.4266 10.1521 65.6803 10.0629 65.9286 9.78102C65.7088 10.2948 65.811 11.3621 66.1162 11.7581C66.4276 12.1544 66.7376 12.3789 67.0643 12.4331C66.7982 12.0528 66.6777 11.4023 66.7066 10.4779C66.7369 9.55395 66.6719 8.88226 66.5047 8.4614C66.2232 7.74291 65.6686 7.1001 64.569 6.91179C64.496 6.88364 64.4153 6.86426 64.3368 6.86426Z" fill="#AF8B18"/>
<path d="M65.5362 49.474C65.4709 48.494 64.311 48.2139 61.5345 48.7939C59.7033 49.1741 58.4492 47.792 58.4492 47.792C58.4492 47.792 59.2623 50.3446 62.1369 49.0348C63.801 48.2746 64.6786 48.5624 65.1197 48.9357C65.0536 48.9131 64.9846 48.8937 64.9065 48.8937C64.5574 48.8937 64.2694 49.1803 64.2694 49.5306C64.2694 49.8835 64.5574 50.1683 64.9065 50.1683C65.1372 50.1683 65.3237 50.0422 65.4391 49.859C65.369 50.0703 65.2712 50.316 65.1427 50.5065C64.8988 50.8799 64.7049 51.0755 64.4384 51.1793C63.5991 51.511 62.9303 51.1954 62.9996 50.4396C62.9996 50.1343 63.134 49.8678 63.4089 49.6385C62.72 49.4005 62.2059 49.9142 62.2406 50.3724C62.2633 50.6239 62.3472 50.8755 62.6331 51.1285C62.1154 50.9062 61.0501 51.0082 60.6565 51.3157C60.2608 51.6243 60.0366 51.9388 59.9859 52.2635C60.3634 51.9929 61.0128 51.8755 61.9354 51.9055C62.8598 51.9359 63.5308 51.8697 63.9477 51.7007C64.6655 51.4207 65.3088 50.8631 65.4961 49.7639C65.526 49.6926 65.5413 49.6144 65.5413 49.531C65.5413 49.5102 65.5391 49.4937 65.5362 49.4754C65.5391 49.4615 65.5413 49.4495 65.5413 49.4356C65.541 49.4458 65.5388 49.4612 65.5362 49.474Z" fill="#AF8B18"/>
<path d="M25.8528 17.2363C26.2216 17.6597 27.127 18.1259 28.5709 18.6305C30.0184 19.1362 31.4543 19.813 31.4755 20.8112C31.4656 20.3793 31.3466 19.4067 30.9352 18.9252C30.347 18.2451 29.5957 18.0312 28.6771 18.2813C28.76 18.2597 28.8418 18.2125 28.9279 18.1376C29.4923 17.6516 29.4515 17.1141 29.1981 16.5931C28.9838 16.1605 28.4902 15.9463 28.0616 16.0208C28.5785 16.5631 28.66 17.2589 28.2912 17.5741C27.6385 18.1372 25.8514 17.7189 25.6042 16.6136C25.3618 15.5239 26.1223 15.3126 26.2734 15.2402C26.1876 15.3502 26.1299 15.4804 26.1299 15.6307C26.1299 15.9817 26.4147 16.2662 26.7637 16.2662C27.1168 16.2662 27.4019 15.9817 27.4019 15.6307C27.4019 15.5963 27.3865 15.5678 27.3836 15.5393C27.3584 15.3795 27.284 15.2435 27.1686 15.1466C26.8177 14.7678 26.1829 14.7265 25.7305 15.1177C25.0821 15.6782 25.2745 16.5576 25.8528 17.2363Z" fill="#AF8B18"/>
<path d="M27.0912 13.2239C25.5272 13.707 25.3516 15.6317 25.3516 15.6317C25.3516 15.6317 25.5038 14.7534 26.1332 14.1307C26.7257 13.5446 27.7038 13.1753 28.6567 13.5863C28.5716 13.6953 28.5128 13.8265 28.5128 13.9746C28.5128 14.3264 28.8005 14.6116 29.1484 14.6116C29.5011 14.6116 29.7866 14.3264 29.7866 13.9746C29.7866 13.8642 29.7534 13.7658 29.7019 13.6751L29.7066 13.673C29.7063 13.6722 29.1714 12.5819 27.0912 13.2239Z" fill="#AF8B18"/>
<path d="M32.0746 18.8149C32.1699 19.0094 32.2696 19.2657 32.3689 19.5338C32.4634 20.0482 32.6452 20.7528 32.9691 21.4198C33.4053 22.3262 33.9891 22.5591 34.2377 22.6194C34.0913 22.5591 33.8299 22.3518 33.513 21.6457C33.5116 21.6421 33.5116 21.6421 33.5083 21.6381C33.4973 21.6128 33.4864 21.5777 33.4758 21.5543C33.3378 21.1708 33.233 20.5053 33.8398 19.9506C34.1549 19.7107 34.4447 19.6541 34.6904 19.6837C34.4338 19.7656 34.2458 19.9992 34.2458 20.2822C34.2458 20.6365 34.5272 20.9203 34.8832 20.9203C35.2366 20.9203 35.5184 20.6365 35.5184 20.2822C35.5184 20.2182 35.5027 20.1619 35.4859 20.1056C35.5071 20.1283 35.5184 20.1448 35.5184 20.1448C35.5053 20.1166 35.4881 20.095 35.4768 20.0665C35.4593 20.0168 35.4326 19.9736 35.3987 19.9301C34.6335 18.677 33.3988 19.1264 33.1582 20.151C33.0727 19.1283 33.1187 18.3856 32.2093 18.001C31.4346 17.6726 30.7194 17.9267 30.5391 17.979C30.738 17.9607 31.669 18.0149 32.0746 18.8149Z" fill="#AF8B18"/>
<path d="M55.186 10.9921C54.7618 11.3574 54.3014 12.266 53.7943 13.7129C53.2908 15.159 52.6151 16.6 51.6133 16.6245C52.0485 16.6124 53.0203 16.4929 53.5008 16.0768C54.1776 15.491 54.3927 14.7374 54.1473 13.8171C54.163 13.9004 54.2138 13.982 54.2846 14.0683C54.7709 14.6354 55.3079 14.5955 55.8326 14.3385C56.2634 14.1279 56.4751 13.6328 56.3977 13.2028C55.8588 13.7227 55.1612 13.8021 54.8472 13.4328C54.2879 12.7812 54.7019 10.9899 55.8081 10.7416C56.896 10.4985 57.1052 11.2586 57.1801 11.4104C57.0706 11.3245 56.9409 11.2648 56.7887 11.2648C56.4382 11.2648 56.1542 11.5493 56.1542 11.9022C56.1542 12.2558 56.4382 12.541 56.7887 12.541C56.8256 12.541 56.8489 12.5267 56.8829 12.5219C57.0413 12.4985 57.1801 12.4232 57.2728 12.3051C57.6474 11.9577 57.693 11.3223 57.3035 10.8689C56.7412 10.2184 55.8691 10.4103 55.186 10.9921Z" fill="#AF8B18"/>
<path d="M59.1942 12.2288C58.7116 10.6601 56.7891 10.4854 56.7891 10.4854C56.7891 10.4854 57.6696 10.636 58.2877 11.2649C58.8744 11.8609 59.2402 12.8376 58.8339 13.7948C58.7222 13.7085 58.5929 13.6515 58.4487 13.6515C58.0913 13.6515 57.8084 13.9345 57.8084 14.2888C57.8084 14.6398 58.091 14.9265 58.4487 14.9265C58.555 14.9265 58.655 14.8903 58.7437 14.8424V14.8464C58.7437 14.8464 59.8331 14.3122 59.1942 12.2288Z" fill="#AF8B18"/>
<path d="M54.4224 17.355C54.7488 16.578 54.4969 15.8602 54.441 15.6836C54.4626 15.884 54.4115 16.8153 53.609 17.22C53.4155 17.3191 53.1556 17.4171 52.8923 17.5144C52.3812 17.6135 51.6766 17.7926 51.0114 18.1133C50.1042 18.5525 49.8698 19.1382 49.8125 19.3883C49.8698 19.2366 50.1042 18.9536 50.8833 18.619C51.2644 18.4837 51.9223 18.3865 52.4769 18.9883C52.7467 19.343 52.7821 19.6706 52.7248 19.9419C52.6777 19.6373 52.4276 19.3997 52.1074 19.3997C51.7566 19.3997 51.4718 19.6841 51.4718 20.0377C51.4718 20.3906 51.7566 20.6747 52.1074 20.6747C52.1837 20.6747 52.2545 20.6553 52.3217 20.6323C52.2991 20.6553 52.2801 20.6688 52.2801 20.6688C53.7981 19.9174 53.3542 18.5605 52.2739 18.3024C53.2965 18.219 54.0394 18.2632 54.4224 17.355Z" fill="#AF8B18"/>
<path d="M61.4245 40.3694C61.0584 39.9441 60.1508 39.4797 58.7036 38.9755C57.2593 38.4695 55.8238 37.7926 55.8008 36.793C55.8095 37.2259 55.9293 38.2 56.3429 38.6786C56.9293 39.3583 57.6802 39.5744 58.6021 39.3254C58.5188 39.3441 58.4345 39.3916 58.3542 39.4669C57.7832 39.9547 57.8208 40.4897 58.0778 41.014C58.291 41.4447 58.7872 41.6583 59.2147 41.5837C58.6963 41.0443 58.6189 40.3474 58.984 40.0308C59.6342 39.468 61.4242 39.8893 61.6695 40.9906C61.9148 42.0799 61.1515 42.2923 61.004 42.3647C61.0894 42.2565 61.1485 42.1234 61.1485 41.9764C61.1485 41.6239 60.8641 41.3387 60.5151 41.3387C60.1632 41.3387 59.874 41.6239 59.874 41.9764C59.874 42.0067 59.8894 42.0363 59.8923 42.0649V42.0692C59.9197 42.2265 59.9919 42.3629 60.1088 42.4583C60.4556 42.8389 61.0967 42.8795 61.5406 42.4868C62.1952 41.9255 62.0047 41.0476 61.4245 40.3694Z" fill="#AF8B18"/>
<path d="M60.1876 44.3832C61.7556 43.8991 61.9283 41.9766 61.9283 41.9766C61.9283 41.9766 61.7801 42.8534 61.1481 43.4757C60.5523 44.0618 59.5779 44.4319 58.6192 44.0191C58.7086 43.9119 58.7638 43.7814 58.7638 43.6315C58.7638 43.2797 58.4812 42.9938 58.1315 42.9938C57.7788 42.9938 57.4922 43.2797 57.4922 43.6315C57.4922 43.7419 57.5291 43.8406 57.5758 43.9317L57.57 43.9335C57.57 43.9335 58.107 45.0235 60.1876 44.3832Z" fill="#AF8B18"/>
<path d="M55.203 38.7898C55.1037 38.5971 55.0051 38.3389 54.9065 38.0735C54.812 37.559 54.6331 36.8522 54.3089 36.1849C53.8708 35.2792 53.2892 35.0459 53.0344 34.9863C53.1815 35.0459 53.4451 35.2536 53.762 35.9568C53.7638 35.96 53.7693 35.9633 53.7693 35.9674C53.7769 35.9962 53.7926 36.0273 53.804 36.0544C53.9412 36.4361 54.0416 37.0994 53.4403 37.6523C53.1045 37.9089 52.7963 37.9576 52.5368 37.9144C52.8175 37.8471 53.0278 37.6084 53.0278 37.3071C53.0278 36.9553 52.739 36.6694 52.3863 36.6694C52.0406 36.6694 51.75 36.9553 51.75 37.3071C51.75 37.3766 51.769 37.4358 51.7916 37.4976C51.7675 37.4764 51.7606 37.4592 51.7606 37.4592C51.7675 37.4873 51.7858 37.5075 51.7989 37.5305C51.8102 37.57 51.8318 37.6011 51.8544 37.6336C52.6207 38.936 53.8737 38.4885 54.1176 37.4548C54.2041 38.4783 54.1599 39.2194 55.0679 39.6055C55.8422 39.9332 56.5629 39.6783 56.7352 39.626C56.5403 39.6447 55.6056 39.5895 55.203 38.7898Z" fill="#AF8B18"/>
<path d="M41.9749 35.0984C41.4659 34.3935 41.1666 34.268 40.8113 34.1463C39.9406 33.8581 38.7734 34.426 38.7734 34.426C38.7734 34.426 39.7267 33.9678 40.9063 35.0849C41.9654 36.0842 42.8843 36.2433 43.8193 36.0762C45.1321 35.8198 45.2606 35.0235 45.2011 34.5254C45.2011 34.5134 45.2102 34.5028 45.2102 34.4936C45.2102 34.3909 45.1792 34.2951 45.1339 34.2106C45.1168 34.1503 45.1007 34.1108 45.1007 34.1108C45.1007 34.1108 45.1062 34.1415 45.1168 34.1832C45.0094 33.9905 44.8105 33.8534 44.5728 33.8534C44.223 33.8534 43.9339 34.1386 43.9339 34.494C43.9339 34.8443 44.223 35.128 44.5728 35.128C44.8243 35.128 45.0416 34.9756 45.1431 34.7606C45.1171 34.9781 45.0419 35.2136 44.8579 35.4048C44.5764 35.7043 43.8284 35.8915 43.2311 35.7493C42.0727 35.4714 42.705 32.8223 42.705 32.8223C42.2169 33.2874 41.8347 33.774 41.9975 34.6099C42.1563 35.4407 42.8996 35.712 42.8996 35.712C42.8996 35.712 42.3381 35.6037 41.9749 35.0984Z" fill="#AF8B18"/>
<path d="M36.3149 28.8973C36.5752 30.2122 37.3675 30.3391 37.8665 30.2795C37.8775 30.2795 37.8855 30.2857 37.9012 30.2857C38.0005 30.2857 38.0925 30.2572 38.1776 30.2144C38.2371 30.1965 38.2751 30.18 38.2751 30.18C38.2751 30.18 38.2459 30.1884 38.2039 30.1965C38.3999 30.0886 38.5357 29.8879 38.5357 29.6491C38.5357 29.2959 38.2524 29.0122 37.9012 29.0122C37.5511 29.0122 37.2634 29.2959 37.2634 29.6491C37.2634 29.9032 37.4138 30.1212 37.6296 30.2203C37.4138 30.1947 37.1784 30.1193 36.986 29.938C36.6866 29.655 36.5011 28.9032 36.6395 28.3065C36.9213 27.1455 39.5678 27.7777 39.5678 27.7777C39.1002 27.2911 38.6146 26.9097 37.7844 27.0702C36.9524 27.2293 36.6789 27.9719 36.6789 27.9719C36.6789 27.9719 36.7863 27.4088 37.2941 27.049C38.0005 26.5386 38.1232 26.2387 38.2429 25.8819C38.5357 25.0124 37.9615 23.8408 37.9615 23.8408C37.9615 23.8408 38.4218 24.7955 37.3039 25.9795C36.304 27.0373 36.1495 27.9573 36.3149 28.8973Z" fill="#AF8B18"/>
<path d="M45.3311 22.3639C45.8414 23.0674 46.1397 23.1917 46.4993 23.3109C47.3646 23.6016 48.5325 23.0308 48.5325 23.0308C48.5325 23.0308 47.5811 23.4919 46.4015 22.3741C45.342 21.3715 44.4246 21.2165 43.4823 21.3847C42.1742 21.6403 42.0471 22.437 42.1048 22.9332C42.1048 22.9452 42.0975 22.9569 42.0975 22.9646C42.0975 23.0699 42.1296 23.1635 42.1702 23.2476C42.1873 23.3091 42.2041 23.3489 42.2041 23.3489C42.2041 23.3489 42.1954 23.316 42.1873 23.274C42.2972 23.4703 42.4969 23.6052 42.736 23.6052C43.0887 23.6052 43.372 23.3204 43.372 22.9643C43.372 22.6143 43.0887 22.3295 42.736 22.3295C42.4809 22.3295 42.2644 22.4834 42.1651 22.6977C42.1873 22.4794 42.2644 22.2461 42.4469 22.0549C42.7291 21.7554 43.4757 21.5664 44.0744 21.7094C45.235 21.9858 44.602 24.6396 44.602 24.6396C45.0868 24.1716 45.4694 23.6864 45.3092 22.8509C45.1507 22.018 44.4107 21.7463 44.4107 21.7463C44.4107 21.7463 44.9696 21.8538 45.3311 22.3639Z" fill="#AF8B18"/>
<path d="M50.9814 28.5635C50.7262 27.2501 49.9336 27.1235 49.4371 27.1795C49.424 27.1795 49.4163 27.1725 49.4003 27.1725C49.298 27.1725 49.2082 27.204 49.1202 27.2435C49.0607 27.2647 49.0206 27.2782 49.0206 27.2782C49.0206 27.2782 49.0556 27.2716 49.0954 27.2639C48.9037 27.374 48.7625 27.5707 48.7625 27.8124C48.7625 28.1638 49.0505 28.4494 49.4003 28.4494C49.7551 28.4494 50.0402 28.1638 50.0402 27.8124C50.0402 27.555 49.8869 27.3385 49.6704 27.2373C49.8869 27.2647 50.1209 27.3404 50.3115 27.5232C50.6109 27.8062 50.7978 28.5565 50.658 29.1525C50.3827 30.3131 47.7344 29.6812 47.7344 29.6812C48.1984 30.1686 48.6847 30.55 49.52 30.3888C50.3484 30.2308 50.6196 29.4867 50.6196 29.4867C50.6196 29.4867 50.5138 30.0505 50.0067 30.41C49.3006 30.9204 49.179 31.2206 49.0585 31.5782C48.7639 32.4495 49.3382 33.6196 49.3382 33.6196C49.3382 33.6196 48.8778 32.6638 49.9957 31.4798C50.9971 30.4231 51.1494 29.5039 50.9814 28.5635Z" fill="#AF8B18"/>
<path d="M44.5485 28.8029C44.5485 28.3013 44.1432 27.8965 43.6405 27.8965C43.1403 27.8965 42.7344 28.3009 42.7344 28.8029C42.7344 29.3031 43.1403 29.7116 43.6405 29.7116C44.1429 29.7119 44.5485 29.3031 44.5485 28.8029Z" fill="#AF8B18"/>
<path d="M48.4137 15.3092L51.9243 14.1304L51.5593 13.0364L50.4428 13.4159L50.521 13.6602L49.234 14.0938L48.3323 11.4473L47.2305 11.8122L48.4137 15.3092Z" fill="#AF8B18"/>
<path d="M50.261 13.5538L49.8116 12.1925L51.1357 11.7365L50.7681 10.6016L48.5232 11.3537L49.3574 13.8565L50.261 13.5538Z" fill="#AF8B18"/>
<path d="M33.241 16.3758L30.574 15.4686L30.2031 16.5762L33.7141 17.7627L34.8908 14.243L33.7963 13.8777L33.4264 15.0002L33.6703 15.0829L33.241 16.3758Z" fill="#AF8B18"/>
<path d="M32.504 13.4368L31.381 13.0488L30.6289 15.2979L33.1275 16.1331L33.4273 15.2266L32.0695 14.7707L32.504 13.4368Z" fill="#AF8B18"/>
<path d="M35.5675 12.9944L35.2031 14.0888L38.7141 15.2651L39.8963 11.7483L38.7901 11.375L37.8901 14.0519L36.6025 13.6149L36.6839 13.3714L35.5675 12.9944Z" fill="#AF8B18"/>
<path d="M36.3573 10.5596L35.9922 11.6942L37.3134 12.1487L36.8593 13.5111L37.7672 13.812L38.6018 11.311L36.3573 10.5596Z" fill="#AF8B18"/>
<path d="M57.1133 33.5812L58.2885 37.1005L59.387 36.7334L59.007 35.6175L58.7598 35.699L58.3279 34.4083L60.97 33.5029L60.606 32.3994L57.1133 33.5812Z" fill="#AF8B18"/>
<path d="M58.8655 35.4381L60.228 34.9851L60.6803 36.3094L61.8172 35.9438L61.0604 33.6943L58.5625 34.5309L58.8655 35.4381Z" fill="#AF8B18"/>
<path d="M56.0492 18.3875L56.9506 15.7183L55.8462 15.3457L54.6641 18.8621L58.1732 20.0391L58.5423 18.9444L57.4241 18.5725L57.3405 18.8171L56.0492 18.3875Z" fill="#AF8B18"/>
<path d="M58.9841 17.6504L59.3692 16.5209L57.1287 15.7703L56.289 18.2738L57.1973 18.5744L57.65 17.2157L58.9841 17.6504Z" fill="#AF8B18"/>
<path d="M59.4248 20.7154L58.331 20.3486L57.1602 23.8691L60.6686 25.0505L61.0421 23.9444L58.3708 23.0427L58.8045 21.7502L59.0451 21.8335L59.4248 20.7154Z" fill="#AF8B18"/>
<path d="M61.8554 21.508L60.7182 21.1416L60.2681 22.4652L58.907 22.0144L58.6055 22.9197L61.1074 23.7571L61.8554 21.508Z" fill="#AF8B18"/>
<path d="M38.8659 42.2979L35.3516 43.4745L35.7196 44.5685L36.8312 44.193L36.7513 43.9465L38.043 43.51L38.9458 46.1587L40.0429 45.7942L38.8659 42.2979Z" fill="#AF8B18"/>
<path d="M37.016 44.0495L37.4665 45.4137L36.1445 45.8686L36.5103 47.0046L38.7552 46.2518L37.9221 43.75L37.016 44.0495Z" fill="#AF8B18"/>
<path d="M54.0386 41.2305L56.7063 42.137L57.0816 41.0272L53.5658 39.8418L52.3906 43.3626L53.4833 43.7279L53.8539 42.6072L53.6126 42.5253L54.0386 41.2305Z" fill="#AF8B18"/>
<path d="M54.7771 44.1681L55.903 44.5575L56.6569 42.3099L54.152 41.4707L53.8516 42.3793L55.2089 42.8364L54.7771 44.1681Z" fill="#AF8B18"/>
<path d="M51.7163 44.612L52.0791 43.515L48.5659 42.3398L47.3867 45.8574L48.4889 46.2322L49.3874 43.5527L50.6801 43.9893L50.5976 44.2321L51.7163 44.612Z" fill="#AF8B18"/>
<path d="M50.9257 47.0441L51.293 45.9102L49.9699 45.456L50.4193 44.0951L49.5117 43.792L48.6797 46.2934L50.9257 47.0441Z" fill="#AF8B18"/>
<path d="M30.1714 24.0236L28.9944 20.5039L27.8977 20.8703L28.2741 21.9888L28.5213 21.908L28.9553 23.2009L26.3125 24.1026L26.679 25.205L30.1714 24.0236Z" fill="#AF8B18"/>
<path d="M28.4161 22.1692L27.0543 22.6222L26.6016 21.2979L25.4688 21.6631L26.2132 23.9119L28.7125 23.0749L28.4161 22.1692Z" fill="#AF8B18"/>
<path d="M31.2315 39.2166L30.325 41.8883L31.432 42.2613L32.617 38.7438L29.1053 37.5664L28.7344 38.6604L29.8555 39.033L29.9395 38.7891L31.2315 39.2166Z" fill="#AF8B18"/>
<path d="M28.2951 39.9558L27.9062 41.0842L30.1501 41.8364L30.9846 39.3328L30.0832 39.0293L29.6273 40.3921L28.2951 39.9558Z" fill="#AF8B18"/>
<path d="M27.8543 36.891L28.9466 37.2548L30.1178 33.7366L26.6068 32.5566L26.2344 33.6602L28.9108 34.5611L28.4705 35.8548L28.2314 35.7714L27.8543 36.891Z" fill="#AF8B18"/>
<path d="M25.4258 36.0974L26.5564 36.4656L27.0099 35.1394L28.376 35.5924L28.675 34.6856L26.1753 33.8479L25.4258 36.0974Z" fill="#AF8B18"/>
</svg>
